<svg xmlns="http://www.w3.org/2000/svg" width="300" height="300">
    <g fill="#8ad" stroke="#fff" stroke-width=".5">

        <path  d="m 76.355249,0208.9277 c 0.0255,0.01 0.0829,-0.012 0.16877,-0.084 0.22018,-0.2008 0.2544,-0.6415 0.61266,-0.6436 0.26332,-0.1972 0.83812,-0.1213 0.78491,-0.6147 -0.0877,-0.5009 0.37228,-0.6471 0.74296,-0.7464 0.21068,-0.233 0.44694,-0.4969 0.60289,-0.7777 0.23923,0.018 0.12937,0.4647 0.45749,0.5299 0.354941,0.045 0.834061,-0.022 1.254381,-0.029 0.62854,0.074 0.22541,0.66 -0.15944,0.7711 -0.21475,0.3332 -0.71439,0.3055 -0.899561,0.6427 -0.25856,0.4691 0.616191,0.6834 0.342741,0.1172 0.0951,-0.1897 0.36613,-0.4757 0.49788,-0.5123 0.35937,-0.121 0.62515,-0.5935 0.90665,-0.8703 -0.28567,-0.1502 -0.36221,-0.5719 -0.295,-0.9294 -0.10848,-0.5737 0.77264,-0.5024 0.61262,-1.1381 0.12303,-0.3988 -0.36954,-0.3459 -0.38115,-0.6455 0.18408,-0.2483 0.57263,-0.4045 0.23024,-0.778 -0.16115,-0.4736 0.50183,-0.6803 0.43478,-1.0885 0.10027,-0.3061 0.47382,-0.5715 0.33495,-0.9173 -0.33722,-0.2155 -0.16489,-0.5258 -7.4e-4,-0.7564 -0.25648,-0.3892 0.11132,-0.1491 0.336,-0.189 0.18622,-0.171 0.25279,-0.4891 0.40658,-0.7622 0.13282,-0.5456 0.74484,-0.6809 1.18254,-0.8936 0.47895,-0.3054 0.58501,-0.9269 0.95677,-1.3349 0.1173,-0.3116 0.5905,-0.3577 0.65577,-0.699 0.2197,-0.347 -0.32717,-0.5757 -0.20657,-0.1064 -0.50745,0.031 0.13849,-0.3391 0.0319,-0.5753 0.22238,-0.206 0.10773,-0.4893 0.014,-0.7519 -0.0816,-0.2995 -0.46503,-0.4896 -0.35955,-0.8386 0.0169,-0.3004 -1.1e-4,-0.6183 -0.0133,-0.9332 -0.0347,-0.3428 0.0303,-0.6879 0,-1.0255 -0.0178,-0.3721 0.0911,-0.7416 0.24264,-1.0749 0.10994,-0.2335 0.36707,-0.4776 0.324,-0.7611 -0.18422,-0.2008 -0.42752,-0.2795 -0.60424,-0.5769 -0.13707,-0.3082 0.53697,-0.3901 0.28318,-0.7471 0.13467,-0.3809 -0.13688,-0.8076 0.0376,-1.2223 0.29296,-0.087 0.21462,-0.3566 0.42306,-0.527 0.13381,-0.3576 0.74322,-0.1358 0.78567,-0.56 0.23113,-0.3739 0.0875,-0.7664 0.21628,-1.1114 -0.0596,-0.3529 0.40036,-0.574 0.1613,-0.9437 -0.0225,-0.4443 -0.41303,-0.2144 -0.64209,-0.3975 -0.25668,-0.2494 -0.005,-0.6416 -0.23688,-0.8934 -0.17253,-0.2824 -0.28113,-0.6136 -0.46175,-0.8858 -0.21558,-0.1602 -0.25027,-0.4468 -0.52878,-0.5393 -0.33101,-0.2684 -0.68603,-0.052 -1.01904,0.085 -0.3026,0.1253 -0.4813,0.4324 -0.30275,0.7571 -0.20441,0.388 -0.5922,0.1704 -0.94637,0.1312 -0.27242,0.1144 -0.92738,0.077 -0.68716,-0.3772 0.16956,-0.2657 0.22666,-0.6555 0.0283,-0.9275 -0.14569,-0.2803 -0.42895,-0.4508 -0.68869,-0.5679 -0.26492,-0.1531 -0.50141,-0.3554 -0.76536,-0.4921 -0.2939,-0.089 -0.54794,-0.2338 -0.5477,-0.5803 -0.0921,-0.3087 -0.56021,-0.4942 -0.35865,-0.8768 0.39073,-0.059 0.25429,-0.6346 0.47224,-0.9272 0.11467,-0.2576 0.0957,-0.5994 -0.0568,-0.8335 -0.14257,-0.2751 -0.29383,-0.5268 -0.57537,-0.6814 -0.203044,-0.1532 -0.442964,-0.3044 -0.538714,-0.5377 -0.0805,-0.2896 -0.17229,-0.5933 -0.23296,-0.8985 -0.0303,-0.3817 -0.316,-0.6137 -0.52245,-0.9298 -0.19905,-0.2174 -0.42026,-0.4402 -0.41411,-0.758 -0.0248,-0.2877 -0.15322,-0.5998 -0.3192,-0.8656 0.0371,-0.4043 -0.34412,-0.5328 -0.56465,-0.7899 -0.1882,-0.2982 -0.55984,-0.2188 -0.81745,-0.3636 -0.28088,-0.1048 -0.59276,-0.2658 -0.88512,-0.2094 -0.31827,0.048 -0.63878,-0.1863 -0.98414,-0.097 -0.26849,0 -0.47383,0.226 -0.75261,0.2493 -0.29993,0.041 -0.69029,0.1881 -0.93551,-0.039 -0.2876,-0.09 -0.50826,-0.3287 -0.57305,-0.5978 -0.008,-0.2702 -0.0847,-0.6151 0.26908,-0.7114 0.0231,-0.3241 0.24228,-0.5591 0.3669,-0.8669 0.12245,-0.2928 0.0613,-0.6232 -0.17417,-0.8447 -0.19305,-0.2213 -0.50671,-0.3826 -0.81527,-0.3137 -0.27153,-0.1354 -0.50848,-0.3653 -0.72438,-0.5945 -0.29947,-0.1349 -0.68248,0.1 -0.98519,-0.1058 -0.21582,-0.1759 -0.40673,-0.4405 -0.33222,-0.719 -0.14323,-0.3546 -0.67256,-0.062 -0.70639,-0.5489 -0.10316,-0.3169 -0.33565,-0.4753 -0.31488,-0.8115 0.12403,-0.3065 0.0511,-0.6492 -0.24968,-0.6928 -0.33267,-0.082 -0.15144,-0.2361 -0.34179,-0.3509 -0.11253,-0.2216 -0.131,-0.3878 -0.46559,-0.3274 -0.3175,0.1122 -0.52482,-0.4591 -0.75611,-0.032 -0.38974,0.2658 -0.13988,-0.2699 -0.10009,-0.4637 0.28514,0.053 0.10533,-0.521 -0.0139,-0.3219 0.0639,0.466 -0.18098,-0.1349 -0.32925,-0.1073 -0.0736,-0.2896 -0.45888,-0.2898 -0.56234,-0.5822 -0.13158,-0.2154 -0.0163,-0.4549 -0.17425,-0.652 -0.21789,-0.056 -0.20172,-0.4496 -0.27348,-0.7367 -0.0418,-0.322 0.18998,-0.6976 0.27675,-0.9406 0.0697,-0.2661 -0.0451,-0.547 0.0944,-0.7568 -0.15215,-0.3304 0.002,-0.6595 0.0351,-0.9359 0.16317,-0.2815 -0.2644,-0.4134 -0.29938,-0.7115 -0.31301,-0.147 -0.0847,0.032 0.0203,0.176 0.24189,0.3081 0.28551,0.4895 0.0931,0.8834 0.13399,0.3945 -0.22511,0.1734 -0.28318,-0.046 0.0197,-0.3186 -0.22805,-0.5115 -0.37785,-0.6631 -0.17344,-0.1802 -0.21213,-0.3686 -0.41883,-0.5198 0.13135,-0.2828 -0.10743,-0.3428 -0.27036,-0.5661 -0.21803,-0.1678 -0.70166,0.037 -0.63306,-0.4294 0.22972,-0.6492 -0.61855,-0.7992 -1.03043,-0.9816 -0.006,-0.1162 -0.14503,-0.4442 -0.35802,-0.4458 -0.15228,-0.029 -0.28486,-0.3393 -0.48059,-0.188 -0.007,0.3654 -0.13963,0.1009 -0.29422,0 -0.18037,-0.1864 0.0222,-0.4554 0.10544,-0.6535 0.0439,-0.2263 0.0154,-0.4173 0.18878,-0.6157 0.20186,-0.2243 -0.28296,-0.5702 0.14192,-0.588 0.29158,-0.1111 0.16098,-0.3728 0.36818,-0.5138 0.21117,-0.1786 0.0272,-0.5808 0.0556,-0.8035 -0.0499,-0.2144 0.0532,-0.4573 0.23983,-0.6128 0.1126,-0.3192 -0.0356,-0.5214 -0.30373,-0.611 -0.0442,-0.3848 0.38373,0.086 0.34904,-0.2959 0.10011,-0.2777 0.59057,-0.2069 0.54666,-0.4469 -0.13774,-0.3506 0.20713,-0.4725 0.36109,-0.6766 0.33696,-0.1301 0.1312,-0.4632 0.20564,-0.6948 0.028,-0.3042 -0.0913,-0.6106 -0.356,-0.774 -0.18959,-0.1738 -0.44237,-0.012 -0.62618,-0.209 -0.12007,-0.1724 -0.25644,-0.4561 -0.0568,-0.6446 -0.25282,-0.1877 -0.0809,-0.6328 -0.43438,-0.6247 -0.12136,-0.3169 -0.4104,-0.1108 -0.5854,-0.349 -0.24866,-0.053 -0.46625,0.2009 -0.66359,0.3384 -0.27522,0.06 -0.56644,-0.319 -0.90831,-0.2203 -0.24839,0.022 -0.52648,0.067 -0.73638,-0.121 -0.0516,-0.2242 -0.18257,-0.4729 -0.28866,-0.6502 -0.14134,-0.2661 -0.32053,-0.5591 -0.31305,-0.8613 -0.0871,-0.2587 0.13805,-0.5288 0.11531,-0.7865 0.17671,-0.1584 0.0911,-0.4514 0.35656,-0.4792 0.10145,0.1909 0.16093,-0.059 0.3241,-0.1296 0.1246,-0.2441 0.27832,-0.4768 0.22698,-0.7424 -0.0414,-0.266 -0.26807,-0.4422 -0.41878,-0.6556 -0.034,-0.2115 -0.0154,-0.4005 0.0334,-0.6023 0.0798,-0.2634 0.28603,-0.5177 0.25187,-0.7779 0.0377,-0.273 0.003,-0.6021 -0.258,-0.759 -0.1101,-0.1913 -0.26663,-0.3321 -0.36134,-0.5505 -0.0534,-0.3184 -0.0644,-0.6215 -0.0882,-0.943 0.006,-0.2505 -0.18766,-0.5102 -0.0259,-0.7619 0.0805,-0.2716 0.0752,-0.5684 0.20991,-0.828 0.11433,-0.3142 -0.079,-0.6377 -0.037,-0.9556 0.11427,-0.2477 0.16303,-0.4878 0.20296,-0.748 0.18818,-0.2579 0.0934,-0.5931 -0.12425,-0.7929 -0.0351,-0.2507 -0.20297,-0.457 -0.36771,-0.6456 -0.21181,-0.1973 -0.46298,-0.3806 -0.76957,-0.2699 -0.25945,0.01 -0.28908,-0.231 -0.42023,-0.3458 -0.20072,-0.1404 -0.50021,0.01 -0.49491,-0.2832 0.0161,-0.141 0.35314,-0.1435 0.28485,-0.3341 0.0662,-0.2217 -0.34008,-0.4589 -0.0306,-0.6232 0.10719,-0.1868 0.28145,-0.3522 0.47,-0.4556 0.29637,0.1158 0.34327,-0.5364 0.0717,-0.6032 -0.0847,-0.1123 -0.3791,-0.4825 -0.39546,-0.3186 -0.20165,0.1523 -0.0913,-0.3489 -0.37759,-0.3249 -0.12986,-0.086 -0.30229,-0.322 -0.49114,-0.1421 -0.23535,0.1912 -0.29741,0.03 -0.29946,-0.1922 -0.20842,-0.1133 -0.29247,-0.4127 -0.38026,-0.5843 0.28704,-0.1707 -0.16468,-0.3999 0.11184,-0.6454 0.2367,-0.1665 0.24904,-0.4816 0.0808,-0.6998 0.20443,-0.238 0.0861,-0.496 0.16117,-0.7564 0.0399,-0.1949 0.008,-0.3719 -0.0707,-0.5824 0.0281,-0.2652 -0.16737,-0.4681 -0.27325,-0.6244 0.30345,-0.1919 -0.0875,-0.3063 0.0269,-0.5429 -0.14298,-0.2789 -0.0953,-0.6143 -0.18458,-0.9184 -0.11894,-0.1989 -0.35902,-0.413 -0.3242,-0.6626 -0.0355,-0.2336 -0.3615,-0.3148 -0.30089,-0.6234 0.0722,-0.2342 0.24219,-0.4132 0.26776,-0.6049 0.0178,-0.2334 0.35197,-0.323 0.18639,-0.046 -0.14842,0.4073 0.042,-0.021 0.15757,-0.063 0.10081,-0.1245 0.35337,-0.1567 0.30833,-0.3477 -0.0777,-0.2715 0.6469,-0.028 0.29611,0.052 -0.36111,-0.1471 -0.17468,0.1174 0.0365,0.1271 0.0926,-0.3591 0.43974,-0.026 0.55777,-0.1885 0.0448,-0.209 0.45853,-0.1822 0.4398,-0.4107 -0.0119,-0.1709 -0.0557,-0.4307 0.19187,-0.5779 -0.009,-0.2988 0.35316,-0.3522 0.35114,-0.6756 0.22591,-0.1037 0.18319,-0.3862 0.33402,-0.6077 0.28066,-0.1584 0.21776,-0.4906 0.19475,-0.7583 -0.016,-0.2852 -0.0742,-0.626 -0.17383,-0.8387 -0.29603,-0.083 -0.0367,-0.508 -0.2245,-0.7084 -0.0931,-0.2024 -0.0809,-0.403 -0.21307,-0.6102 -0.12648,-0.1927 -0.24121,-0.4568 -0.5216,-0.4327 -0.22833,-10e-5 -0.19476,-0.3364 -0.39756,-0.4543 -0.21662,-0.093 -0.1658,-0.3692 -0.19621,-0.537 0.13362,-0.1233 0.25618,-0.3241 0.20954,-0.5051 0.23936,0.1538 0.0808,-0.025 0.22061,-0.1116 0.2044,-0.077 0.43693,-0.1838 0.60521,-0.3254 0.18989,-0.2183 -0.01,-0.3645 -0.15436,-0.4993 -0.1004,-0.215 0.45203,-0.2726 0.11118,-0.4643 -0.21798,0.098 -0.39355,-0.056 -0.611,0.077 -0.33298,0.057 -0.27323,-0.3421 -0.12652,-0.4622 -0.16009,-0.1714 -0.51633,-0.1376 -0.38041,-0.422 0.0144,-0.2812 0.13566,-0.5727 0.11529,-0.8682 -0.0411,-0.2783 0.29482,-0.4182 0.39562,-0.6534 0.27276,-0.3432 0.24895,-0.7786 0.24719,-1.1986 -0.0495,-0.3079 -0.34539,-0.4356 -0.52949,-0.6454 -0.17254,-0.129 -0.39954,-0.1992 -0.59598,-0.2838 -0.26582,-0.1339 -0.63085,-0.076 -0.87722,-0.2207 -0.16418,-0.2227 -0.41832,-0.131 -0.60278,0.011 -0.28198,0.2719 -0.40849,-0.054 -0.48907,-0.2759 -0.25082,-0.2095 0.0288,-0.5989 -0.22973,-0.8291 0.0749,-0.3171 -0.0775,-0.6817 0.17985,-0.9275 0.11205,-0.3302 -0.13148,-0.7107 0.0996,-1.0077 0.068,-0.2895 0.0214,-0.5923 -0.195,-0.8094 -0.16032,-0.3364 -0.0549,-0.6791 0.0368,-1.0032 -0.233,0.03 -0.49642,-0.228 -0.55559,-0.4553 0.075,-0.2687 0.29351,-0.3297 0.30767,-0.6201 0.0842,-0.3441 -10e-4,-0.7134 -0.006,-1.0634 -0.11572,-0.3274 0.0264,-0.6861 -0.0353,-1.0251 -0.0972,-0.2541 0.0588,-0.4976 0.13152,-0.7146 0.13168,-0.2722 -0.0704,-0.4758 -0.0395,-0.7569 0.12864,-0.3043 -0.14708,-0.4552 -0.22508,-0.6902 -0.10807,-0.2706 0.0589,-0.5646 -0.0542,-0.814 -0.0942,-0.2559 -0.50558,-0.1662 -0.43636,-0.4995 -0.12411,-0.2952 0.18067,-0.4469 0.31913,-0.6581 0.12331,-0.2487 0.30782,-0.4249 0.58346,-0.4633 0.25144,0 0.42115,0.2499 0.56916,-0.048 0.022,-0.299 0.39421,-0.3566 0.39583,-0.6394 -0.008,-0.2735 0.20909,-0.5918 0.33934,-0.7586 0.13164,-0.166 -0.0121,-0.4194 0.13669,-0.5726 0.20556,-0.1669 0.27946,-0.4718 0.24153,-0.7573 0.009,-0.2849 -0.0117,-0.584 0.0565,-0.8829 -0.0351,-0.2785 -0.0147,-0.5913 -0.29753,-0.6873 0.0348,-0.2831 0.30905,-0.5347 0.29682,-0.8576 0.0704,-0.3118 -0.048,-0.6384 -0.0747,-0.9394 0.003,-0.2524 -0.0429,-0.4933 -0.015,-0.7384 0.0829,-0.1899 0.17615,-0.3257 0.3137,-0.4904 0.15785,-0.1163 0.341,-0.2482 0.40218,-0.4391 0.0853,-0.2128 0.29409,-0.3925 0.3168,-0.6368 0.0572,-0.1773 0.2065,-0.3334 0.19987,-0.5313 0.0698,-0.2049 0.20172,-0.3864 0.13319,-0.5989 0.15325,-0.1592 0.0228,-0.4133 0.19789,-0.5615 0.10056,-0.1818 0.29725,-0.3317 0.40635,-0.5553 -0.007,-0.3452 -0.30336,0.127 -0.42721,0.213 -0.0243,-0.1476 -0.0674,-0.278 -0.14152,-0.3797 -0.0486,-0.2273 0.0628,-0.5031 0.23768,-0.6582 0.0931,-0.099 0.32072,-0.3517 0.44987,-0.1888 -0.19731,0.2795 0.22401,0.354 0.30556,0.048 0.18799,-0.1313 0.42912,-0.2393 0.65073,-0.3275 0.14031,-0.2129 0.3926,-0.2767 0.60665,-0.4296 0.20158,-0.066 0.32033,-0.2718 0.48803,-0.3664 0.16124,-0.1457 0.2948,-0.316 0.46407,-0.4286 -0.10484,-0.2541 0.2465,-0.3182 0.18575,-0.5427 -0.11672,-0.2374 0.088,-0.4873 0.0565,-0.7152 -0.063,-0.056 0.042,-0.381 0.20088,-0.2908 0.19455,-0.088 0.32512,-0.1755 0.52977,-0.2873 0.17397,-0.1309 0.35864,-0.2317 0.54409,-0.3402 0.24507,-0.1779 0.13487,-0.4976 0.12587,-0.7468 -0.0868,-0.2732 0.0593,-0.4716 0.26287,-0.6234 0.14262,-0.1845 0.41608,-0.2531 0.49335,-0.4853 0.17062,-0.2181 0.28782,-0.4581 0.39363,-0.7223 0.0898,-0.2299 0.16993,-0.4791 0.28847,-0.6874 0.0797,-0.2552 0.34239,-0.3602 0.45218,-0.5931 0.10881,-0.2098 0.38605,-0.3734 0.40169,-0.6281 0.0705,-0.2196 0.15923,-0.4017 0.24101,-0.6178 0.0597,-0.2152 0.14385,-0.4318 0.28988,-0.5896 0.12507,-0.1131 0.19391,-0.2825 0.34928,-0.3637 0.15412,-0.1507 0.31252,-0.2741 0.48197,-0.4353 0.17486,-0.092 0.25477,-0.3125 0.37507,-0.476 0.16193,-0.2154 0.31638,-0.4183 0.44609,-0.6508 0.0633,-0.2365 0.25819,-0.4026 0.37758,-0.5957 0.16837,-0.1513 0.44616,-0.1682 0.5853,-0.3596 0.21028,-0.096 0.27184,-0.3042 0.41111,-0.4591 0.20613,-0.1461 0.42559,-0.281 0.69402,-0.3359 0.23415,-0.096 0.53996,-0.1187 0.84932,-0.073 0.3,-0.098 0.6536,-0.046 0.87924,-0.2679 0.23563,-0.056 0.35263,-0.2177 0.49023,-0.3787 0.23946,-0.073 0.27914,-0.3359 0.43782,-0.4652 0.11215,-0.2139 0.30843,-0.2816 0.54388,-0.3685 0.27208,-0.047 0.28871,-0.3625 0.5506,-0.3964 0.2259,-0.033 0.47679,-0.1124 0.58215,-0.3286 0.12279,-0.2644 0.0722,-0.5383 0.30428,-0.7459 0.0937,-0.1726 0.18931,-0.3652 0.32413,-0.5294 0.0687,-0.2237 0.16362,-0.4939 0.3726,-0.6207 0.18028,-0.108 0.36906,-0.1646 0.56662,-0.2271 0.24741,-0.1296 0.53155,-0.1827 0.73649,-0.3597 0.15764,-0.1414 0.31028,-0.2505 0.48971,-0.3846 0.17639,-0.1919 0.38658,-0.3944 0.55391,-0.6139 0.1383,-0.174 0.27818,-0.3635 0.3848,-0.5603 0.12217,-0.1986 0.23976,-0.3473 0.32776,-0.5722 0.0545,-0.2888 0.2624,-0.4272 0.4582,-0.602 0.22335,-0.1926 0.62724,-0.067 0.86359,-0.1908 0.21645,-0.049 0.33813,-0.2439 0.52816,-0.3667 0.15865,-0.1397 0.32587,-0.3219 0.47259,-0.4851 0.223134,-0.093 0.391464,-0.2819 0.575064,-0.413 0.16199,-0.1426 0.17096,-0.3498 0.31262,-0.5155 0.14577,-0.2453 0.38074,-0.3592 0.66,-0.3674 0.26013,-0.01 0.49298,-0.1474 0.73328,-0.2468 0.11865,-0.1083 0.27813,-0.2738 0.23087,-0.4619 0.0321,-0.2538 0.13003,-0.485 0.13202,-0.7442 0.0478,-0.2133 -0.0795,-0.4247 -0.16996,-0.5731 -0.0596,-0.2978 -0.30276,-0.5624 -0.60367,-0.6024 -0.4691,-0.077 0.0191,-0.4563 0.28246,-0.3635 0.20907,-0.028 0.38979,-0.016 0.5477,-0.1982 0.22411,-0.1162 0.19852,-0.4002 0.30655,-0.5688 0.0333,-0.2144 0.15054,-0.357 0.23748,-0.5468 0.22103,-0.1319 0.34702,-0.3696 0.50146,-0.5815 0.13047,-0.2079 0.13911,-0.4605 0.17297,-0.6878 0.0548,-0.1575 0.27174,-0.086 0.39786,-0.2018 0.22582,0.012 0.44357,-0.018 0.64442,-0.1435 0.21605,-0.1157 0.34974,-0.3088 0.50793,-0.4906 0.16593,-0.1771 0.24418,-0.4427 0.29062,-0.6626 0.0399,-0.2437 0.0849,-0.3543 0.13349,-0.5943 0.0241,-0.2688 0.0452,-0.515 0.0151,-0.7813 0.0349,-0.2997 0.0304,-0.6073 0.0967,-0.9089 0.0362,-0.2235 0.18117,-0.4033 0.24665,-0.6083 0.15917,-0.28 0.12813,-0.5988 0.11122,-0.9085 -0.0952,-0.2106 -0.20515,-0.4166 -0.26346,-0.6407 3.7e-4,-0.3439 -0.0407,-0.6632 0.006,-1.008 -0.11174,-0.2838 0.32723,-0.4989 0.20146,-0.6816 -0.13601,-0.2117 -0.28957,-0.5446 -0.0953,-0.7692 -0.0148,-0.2689 0.20247,-0.4403 0.20321,-0.7116 0.0675,-0.2437 -7.4e-4,-0.5178 0.0244,-0.778 -0.0267,-0.3138 0.112,-0.5723 0.19878,-0.8622 0.10126,-0.2421 0.21874,-0.4933 0.35891,-0.7193 0.0685,-0.2467 0.18295,-0.4248 0.40716,-0.5526 0.19113,-0.106 0.42758,-0.192 0.5576,-0.3875 0.1711,-0.2201 0.51004,-0.027 0.71658,0.013 0.1651,0.075 0.20437,0.3173 0.36143,0.4073 0.0575,0.1343 0.20979,0.3934 0.41193,0.4484 0.21146,0.1956 0.74048,-0.1162 0.76446,0.3165 -0.0283,0.2138 0.029,0.4117 -0.057,0.6041 -0.001,0.2141 -0.18715,0.3875 -0.28495,0.5299 -0.0471,0.1973 0.0791,0.4902 0.34274,0.4754 0.13803,-0.1066 0.57041,-0.4179 0.57524,-0.1014 -0.0439,0.3588 0.29627,0.5648 0.6235,0.4611 0.1869,-0.1283 0.40344,-0.2214 0.55746,-0.424 -0.21127,-0.017 -0.36731,0.1909 -0.50103,0.2666 -0.16339,0.15 -0.48521,0.1275 -0.62513,-0.085 0.16637,-0.2944 -0.198,-0.5547 -0.42134,-0.308 -0.19361,0.2973 -0.65244,-0.033 -0.46262,-0.2663 0.17275,-0.17 0.28489,-0.3599 0.31149,-0.6016 -0.005,-0.2583 0.0745,-0.5091 -0.0388,-0.7552 -0.1165,-0.2377 -0.48054,-0.088 -0.66024,-0.1661 -0.22442,-0.021 -0.32226,-0.2778 -0.4646,-0.4289 -0.13566,-0.1439 -0.22805,-0.3522 -0.3301,-0.4871 -0.22069,-0.073 -0.46844,-0.1734 -0.65027,-0.2717 -0.19733,-0.2954 0.0526,-0.6177 0.14043,-0.9119 0.11927,-0.1832 0.0916,-0.3979 0.22028,-0.5788 0.0198,-0.252 0.30899,-0.351 0.44931,-0.4865 0.24003,-0.1542 0.37832,-0.4177 0.389,-0.7039 0.15774,-0.2037 0.14651,-0.4743 0.1788,-0.7193 0.12318,-0.2137 0.32947,-0.2847 0.55174,-0.2989 0.20531,-0.015 0.43932,0.01 0.63826,0.018 0.22098,0.1384 0.51809,0.1178 0.76416,0.2052 0.20623,0.061 0.40875,0.1181 0.62317,0.1893 0.235,0.1323 0.4534,0.2179 0.70185,0.3429 0.20067,0.044 0.41824,0.1981 0.65228,0.1871 0.42013,0 0.81592,0.069 1.24266,0.057 0.38712,0.037 0.81957,2e-4 1.23341,0 0.2592,0.013 0.53762,0.085 0.76602,0.2089 0.20376,0.096 0.42444,0.1904 0.63191,0.3104 0.26572,0.1463 0.5514,0.21 0.83655,0.3348 0.26261,0.094 0.5342,0.1712 0.7712,0.3318 0.18854,0.1359 0.40849,0.2416 0.60027,0.3973 0.16804,0.1151 0.37091,0.2432 0.55815,0.3448 0.22464,0.091 0.44074,0.2285 0.63536,0.3746 0.1398,0.1165 0.28,0.2581 0.41543,0.3686 0.11861,0.2205 0.21634,0.4548 0.24741,0.7148 0.0289,0.4025 0.0694,0.8232 -0.002,1.2379 -0.0131,0.2735 0.0338,0.5133 0.16986,0.754 -0.10653,0.2219 -0.20179,0.6409 0.24355,0.4701 0.0972,-0.2707 0.42658,-0.1424 0.43641,0.1051 0.0338,0.2476 -0.22459,0.3466 -0.30698,0.5368 -0.17076,0.2344 0.10334,0.3713 0.13686,0.5726 -0.0417,0.323 -0.4739,0.1426 -0.56637,0.3985 0.008,0.3717 0.45342,0.3756 0.71756,0.3008 0.21726,-0.047 0.58047,0.068 0.70414,-0.1587 0.19107,-0.2153 0.003,-0.4951 0.0134,-0.7299 -0.0152,-0.188 0.32883,-0.441 0.50375,-0.2713 -0.0836,0.2365 -0.18716,0.6682 0.13675,0.7431 0.21042,0.13 0.41203,-0.034 0.61373,10e-4 0.27103,0 0.47533,0.2705 0.73381,0.313 0.1759,0.1031 0.50574,0.054 0.46954,0.3595 -0.001,0.2492 -0.26118,0.3399 -0.40704,0.4869 -0.23946,0.2036 -0.10782,0.6294 0.21879,0.6221 0.30464,0.094 0.10086,0.4151 0.0188,0.5838 -0.0818,0.2666 -0.15379,0.6622 0.19253,0.7726 0.29495,0.054 0.61432,-0.051 0.89942,0.099 0.25985,0.039 0.26687,0.3076 0.38853,0.4762 0.0441,0.2807 -0.15925,0.5164 -0.23591,0.777 -0.10328,0.3962 0.15967,0.1513 0.14508,-0.1007 0.0824,-0.2786 0.38513,-0.6216 0.0991,-0.8875 -0.0892,-0.2251 -0.32437,-0.3781 -0.55693,-0.4346 -0.27358,-0.091 -0.59389,0 -0.84059,-0.1621 -0.29432,-0.2627 0.22111,-0.5685 0.15331,-0.8826 -0.0226,-0.2965 -0.33825,-0.3012 -0.49598,-0.4789 -0.0716,-0.3404 0.32059,-0.4058 0.47383,-0.5891 0.157,-0.1427 0.0346,-0.4375 -0.11588,-0.5727 -0.21614,-0.1528 -0.50275,-0.1368 -0.68875,-0.3602 -0.24189,-0.1918 -0.55212,-0.1443 -0.83712,-0.096 -0.36735,0.066 -0.30902,-0.4206 -0.2607,-0.6365 -0.028,-0.2229 -0.29323,-0.2597 -0.4395,-0.1196 -0.30889,0.031 -0.31301,0.3985 -0.19232,0.62 -0.0161,0.3299 -0.20388,0.6858 -0.57467,0.5136 -0.22175,-0.012 -0.46697,0.1188 -0.66111,-0.039 -0.25091,-0.2687 0.12784,-0.1896 0.28732,-0.2664 0.29798,-0.1719 0.12715,-0.4689 -9.2e-4,-0.6791 0.0613,-0.217 0.3731,-0.3201 0.37962,-0.5907 0.08,-0.2833 -0.21147,-0.4589 -0.45903,-0.4503 -0.4037,0.1813 -0.1674,-0.1951 -0.25032,-0.4285 -0.15064,-0.2921 0.0969,-0.5847 0.0147,-0.8718 0.0474,-0.2345 -0.0747,-0.4397 -0.0159,-0.6837 0.0691,-0.2958 -0.0213,-0.6211 -0.15214,-0.8894 -0.12667,-0.1775 -0.20287,-0.3679 -0.3944,-0.4968 -0.18477,-0.2107 -0.42737,-0.2983 -0.59979,-0.5246 -0.15888,-0.1625 -0.37969,-0.2737 -0.55215,-0.4208 -0.1812,-0.092 -0.37387,-0.1828 -0.50525,-0.3229 -0.22511,-0.1156 -0.47645,-0.2195 -0.68454,-0.3585 -0.26739,-0.054 -0.48068,-0.2218 -0.73459,-0.3017 -0.20822,-0.08 -0.39459,-0.1794 -0.59565,-0.2627 -0.0688,-0.067 -0.48585,-0.2693 -0.21611,-0.1928 0.25006,0.1401 0.5357,0.044 0.76436,0.2083 0.26817,-0.1137 0.50818,0.082 0.72545,0.076 0.25321,0.082 0.4951,0.1345 0.75727,0.2082 0.27415,0.038 0.50462,0.1623 0.73197,0.2828 0.17084,0.084 0.34525,0.1696 0.52909,0.2594 0.28148,0.1195 0.50311,0.3312 0.78523,0.4391 0.19872,0.1573 0.41824,0.3921 0.68985,0.4194 0.24245,0.089 0.41431,0.2608 0.64212,0.3572 0.15394,0.1715 0.35494,0.2518 0.54121,0.3878 0.25521,0.102 0.4635,0.2588 0.70012,0.3678 0.20337,0.1578 0.47891,0.2511 0.65105,0.4023 0.14927,0.1527 0.3715,0.2398 0.53722,0.3662 0.17171,0.1537 0.41509,0.1545 0.6018,0.2954 0.15073,0.1608 0.36509,0.1561 0.51088,0.3028 0.27981,0.064 0.49738,0.2619 0.73796,0.3959 0.25123,0.1107 0.48022,0.2945 0.69443,0.4428 0.20766,0.077 0.40555,0.1818 0.59933,0.2534 0.24474,0.079 0.43076,0.1154 0.65079,0.2329 0.26235,0.1701 0.54605,0.1334 0.83955,0.2289 0.23981,0.1426 0.4156,0.2993 0.68533,0.3316 0.26003,-0.01 0.49038,0.164 0.74796,0.2534 0.17463,0.082 0.35303,0.1132 0.52877,0.2461 0.17723,0.1058 0.36443,0.2317 0.58198,0.2943 0.21873,0.074 0.37362,0.2136 0.57568,0.2915 0.24837,0.096 0.51727,0.2379 0.78748,0.2862 0.2615,0.023 0.5409,0.141 0.79311,0.2637 0.2181,0.1061 0.4436,0.1752 0.68274,0.24 0.17788,0.1328 0.41832,0.1886 0.54865,0.3665 0.18052,0.1653 0.37432,0.3032 0.63537,0.3096 0.12954,0.1748 0.35681,0.337 0.57157,0.3988 0.18628,0.1434 0.32761,0.3272 0.57121,0.3149 0.0478,0.2124 0.18374,0.165 0.29507,0.2251 0.16959,0.1531 0.3686,0.2461 0.58531,0.3407 0.19188,0.1681 0.39893,0.2564 0.62664,0.371 0.24548,0.082 0.43253,0.225 0.66124,0.2962 0.29948,0.031 0.5759,0.16 0.85848,0.2794 0.30665,0.096 0.64507,0.1499 0.91002,0.326 0.16568,0.069 0.34786,0.1741 0.53142,0.1859 0.19122,0.1826 0.4629,0.1846 0.69904,0.2452 0.34369,-0.027 0.63084,0.078 0.9676,0.057 0.2891,-0.072 0.59837,-0.049 0.9007,10e-5 0.3671,-0.044 0.68983,-0.102 1.05374,-0.1165 0.30894,-0.016 0.57673,0.021 0.84651,-0.1108 0.27527,0.069 0.55798,0.043 0.81771,0.1725 0.28203,0.077 0.61244,0.2519 0.89271,0.225 0.26358,0.074 0.58858,0.1259 0.81186,0.2592 0.13038,0.1211 0.38642,0.111 0.56357,0.2139 0.25212,0.081 0.58013,0.097 0.79329,0.1415 0.23713,0.046 0.50035,0.01 0.69538,0.1599 0.2029,0.051 0.3936,0.032 0.57172,0.1719 0.23065,0.1023 0.47412,0.208 0.71161,0.3039 0.16685,0.074 0.36262,0.088 0.51579,0.1314 0.32863,-0.029 0.57723,0.1947 0.87362,0.049 0.33077,-0.063 0.62387,-0.2044 0.95491,-0.2588 0.22265,-0.062 0.49109,-0.2183 0.72996,-0.079 0.20329,0.1474 0.44078,0.2334 0.66052,0.4 0.17406,0.143 0.2694,0.3223 0.40562,0.5087 0.14111,0.177 0.26341,0.3629 0.43274,0.5227 0.12777,0.1448 0.27617,0.312 0.3437,0.5046 0.0186,-0.1772 0.15544,-0.3441 0.39647,-0.3996 0.22054,-0.1051 0.47331,6e-4 0.65792,0.1157 0.15181,0.094 0.22202,0.2434 0.35379,0.3207 0.0841,0.1676 0.27618,0.2115 0.41128,0.3251 0.19697,0.1417 0.41494,0.2254 0.65532,0.2817 0.11109,-0.023 0.55349,-0.044 0.30665,-0.152 -0.20206,0.024 -0.42494,0.073 -0.61376,-0.037 -0.20444,-0.1291 -0.42725,-0.2475 -0.58662,-0.4542 -0.21793,-0.1365 -0.38701,-0.36 -0.64595,-0.4453 -0.25249,-0.1553 -0.57555,-0.085 -0.84386,-0.047 -0.30954,0.058 -0.37898,-0.2727 -0.47065,-0.4745 -0.11832,-0.2318 -0.27852,-0.4478 -0.48027,-0.622 -0.12969,-0.1731 -0.35681,-0.2059 -0.48604,-0.361 -0.19518,-0.1359 -0.40932,-0.2553 -0.63132,-0.3217 -0.27301,-0.057 -0.53857,-0.1775 -0.70297,-0.3734 0.0725,-0.2952 0.32579,-0.4065 0.53416,-0.4974 0.19783,0.01 0.35751,-0.1227 0.50992,-0.2438 0.17233,-0.037 0.46782,0.1682 0.48473,-0.068 0.11948,0.2204 0.42033,0.1138 0.57293,0.2791 0.24368,0.2113 0.59191,0.2249 0.87155,0.3758 0.24455,0.096 0.41267,0.2952 0.66193,0.3618 0.19528,0.1407 0.46912,0.1305 0.68448,0.262 0.31035,0.2511 0.70977,0.3407 1.03492,0.5668 0.28936,0.011 0.4625,0.2027 0.75017,0.2271 0.20684,0.013 0.44963,0.1961 0.65209,0.265 0.2475,0.1924 0.52355,0.2046 0.8109,0.275 0.23093,0.089 0.54876,0.088 0.64168,0.3181 0.17219,0.2024 0.39977,0.061 0.54892,0.1589 0.22125,0.1251 0.46575,0.2164 0.70483,0.2155 0.12014,0.2038 0.2804,0.097 0.44528,0.2793 0.24125,-0.1005 0.37252,0.3292 0.62419,0.1918 0.14378,0.1393 0.36475,0.2079 0.39651,0.4921 -0.006,0.3867 0.51365,0.2916 0.51764,0.6645 0.23404,0.2384 0.66216,0.017 0.78522,0.3587 0.15926,0.2161 0.34417,0.4356 0.58636,0.5479 0.21908,0.075 0.42599,0.1614 0.62228,0.2743 0.18779,0.1207 0.39209,0.1878 0.54737,0.3561 0.1413,0.2074 0.41108,0.2086 0.60099,0.2959 0.18809,0.072 0.32648,0.2126 0.52692,0.2707 0.24644,0.135 0.49712,0.2329 0.75912,0.2935 0.22949,-0.012 0.47088,-0.065 0.732,-0.033 0.23186,-0.039 0.46142,-0.024 0.69904,-0.1326 0.30564,0.01 0.64158,-0.03 0.94937,0.056 0.24187,0.056 0.38222,0.25 0.4927,0.4505 0.15978,0.1703 0.21029,0.3965 0.35053,0.5706 0.13643,0.2087 0.37259,0.3883 0.56498,0.5487 0.15047,0.1553 0.32041,0.3416 0.5183,0.4665 0.16787,0.1217 0.3308,0.2365 0.50551,0.3237 0.22914,0.1046 0.51378,0.1291 0.70825,0.2768 0.20163,0.035 0.46241,0.1826 0.58027,0.3769 0.0936,0.2421 0.21013,0.4825 0.2592,0.7191 0.0174,0.2759 0.0472,0.5687 -0.023,0.811 -0.0943,0.2537 -0.40296,0.3418 -0.54833,0.5489 -0.15657,0.3902 0.30111,0.4014 0.55883,0.3231 0.18967,0.2795 -0.43744,0.1145 -0.51488,0.3884 -0.10625,0.2025 -0.33107,0.3322 -0.39287,0.5808 -0.0281,0.3124 0.34796,0.3314 0.50921,0.1494 0.29238,-0.058 0.59317,0.054 0.87404,0.083 0.15085,0.1671 0.18575,0.4019 0.37121,0.5501 0.2128,0.2031 -0.16088,0.5273 -0.26254,0.1958 -0.0631,-0.202 -0.21703,-0.4833 -0.45331,-0.4342 -0.26857,0.068 -0.38343,0.3569 -0.35865,0.6177 0.13313,0.213 0.11572,0.4308 0.16026,0.6671 0.18502,0.09 0.0304,-0.5238 -0.0449,-0.6846 -0.13862,-0.2538 0.18808,-0.676 0.474,-0.4711 0.15925,0.1521 0.18026,0.6685 0.50624,0.4333 0.25404,-0.2613 -0.16415,-0.4447 -0.20412,-0.6836 -0.0516,-0.3683 -0.44758,-0.2537 -0.70477,-0.3331 -0.29339,-0.192 -0.52385,0.2138 -0.77199,0.084 -0.12174,-0.3357 0.25339,-0.5111 0.39651,-0.7461 0.16623,-0.084 0.7825,-0.2659 0.3576,-0.4543 -0.24891,0.098 -0.67528,-0.042 -0.36242,-0.3418 0.15586,-0.082 0.32207,-0.1405 0.41238,-0.3017 0.17357,-0.1295 0.14554,-0.3983 0.19845,-0.6067 -0.006,-0.1864 0.0728,-0.4858 -0.001,-0.7197 -0.036,-0.174 -0.16476,-0.3099 -0.22371,-0.4728 -0.1558,-0.039 -0.2928,-0.343 -0.4878,-0.3608 -0.16463,-0.1315 -0.35386,-0.2107 -0.53694,-0.3217 -0.23334,-0.083 -0.4544,-0.1281 -0.59333,-0.2324 -0.2015,-0.092 -0.36573,-0.2089 -0.48446,-0.371 -0.0274,-0.2586 -0.26697,-0.4399 -0.27063,-0.699 0.003,-0.2913 0.35094,-0.01 0.52109,-0.079 0.18894,0.1244 0.45971,0.1279 0.66975,0.2292 0.25107,0.1221 0.51073,0.1819 0.74438,0.3417 0.20119,0.1315 0.49675,0.1361 0.62417,0.3531 0.16939,0.1448 0.36312,0.2628 0.57562,0.3273 0.24867,0.1367 0.45627,0.3013 0.72003,0.4043 0.20796,0.079 0.36522,0.2073 0.57284,0.296 0.0925,0.1569 0.25661,0.2074 0.40877,0.2861 0.1889,0.1441 0.43825,0.2655 0.5909,0.465 0.2506,-0.1 0.4152,0.2133 0.6084,0.3257 0.24865,0.096 0.49446,0.2013 0.6958,0.3618 0.27921,0.022 0.0807,0.1894 0.38162,0.2237 0.1739,0.1132 0.34879,0.2542 0.48991,0.3762 0.0868,0.1082 0.27916,0.3619 0.42836,0.1965 0.2643,0.017 0.48514,0 0.65073,0.2952 0.009,0.218 0.2918,0.3667 0.42082,0.4794 0.0188,-0.1554 -0.27382,-0.3664 -0.0212,-0.5452 0.24702,-0.3475 0.38955,0.1567 0.70875,0.1866 0.22709,0.1769 0.45824,0.3515 0.54875,0.6236 0.25347,0.092 -0.27349,0.536 0.10924,0.2653 0.25961,0.035 0.37892,0.266 0.60727,0.3514 0.19986,0.1519 0.35504,0.33 0.47329,0.5568 0.19486,0.1347 0.417,0.3749 0.21011,0.6097 -0.11494,0.222 -0.35005,0.2625 -0.54842,0.1579 0.15753,0.2086 0.53731,0.2261 0.67698,0.2914 0.22945,-0.2064 0.47878,0.072 0.59616,0.1878 0.24901,0.024 0.54328,0.077 0.72589,0.2585 0.16498,0.2278 0.43137,0.2357 0.62317,0.4186 0.0543,0.1957 0.33834,0.183 0.27038,0.4355 0.0625,0.4262 0.093,-0.1871 0.0883,-0.353 0.32772,-0.1447 0.58113,0.187 0.63354,0.4355 0.17333,0.1644 0.31971,0.3559 0.29174,0.5787 0.23774,-0.057 0.42124,0.1356 0.48974,0.4028 0.23536,0.1687 0.14885,0.5095 0.28054,0.7509 0.0648,0.1379 0.2887,0.5479 0.41997,0.2852 0.19127,0.031 0.24759,0.4135 0.51594,0.4283 0.16017,0.1788 0.12657,0.5085 0.27663,0.6813 0.0408,0.2173 -0.0538,0.4377 -0.0189,0.6393 0.17173,0.1321 0.25775,0.4213 0.49117,0.3786 0.23884,0.013 0.48018,0.1152 0.61357,0.3407 0.14021,0.2094 0.20707,0.4855 0.37765,0.677 0.13953,0.2887 0.50612,0.252 0.66924,0.5127 0.12223,0.184 0.34112,0.2901 0.51609,0.3883 0.18028,0.086 0.26299,0.2973 0.46704,0.3816 0.22246,0.2038 0.50611,0.2282 0.70769,0.4314 0.25034,0.039 0.40944,0.2017 0.57594,0.3779 0.16422,0.1932 0.48268,0.1715 0.62539,0.4237 0.20452,0.2388 0.56938,-0.188 0.67803,0.2255 0.0924,0.1861 0.0432,0.4171 0.155,0.5871 0.0963,0.2126 0.23233,0.3694 0.39443,0.5312 0.17501,0.1551 0.31617,0.3815 0.51191,0.5358 0.1336,0.2041 0.32375,0.4192 0.5138,0.5895 0.195,0.2813 0.56575,0.1146 0.74766,0.4142 0.18976,0.3912 -0.32949,-0.1021 -0.4065,0.2082 -0.11404,0.215 -0.31519,0.342 -0.46614,0.5265 -0.1623,0.1797 -0.35163,0.1023 -0.53786,0.098 -0.23964,-0.033 -0.45494,-0.088 -0.69001,-0.1459 -0.25849,-0.1308 -0.53725,-0.084 -0.7775,-0.037 -0.19501,0.022 -0.38459,0.1101 -0.43094,0.3031 -0.12878,0.2179 -0.10651,0.3995 -0.24125,0.6204 -0.086,0.2287 -0.22965,0.3987 -0.33998,0.5957 -0.0698,0.2146 0.0933,0.5468 0.33522,0.4799 0.17771,-0.091 0.536,-0.2245 0.59255,0.067 -0.0577,0.2333 -0.10313,0.4347 -0.20127,0.6534 0.01,0.1809 -0.37753,0.5201 -0.2156,0.5489 0.22625,-0.198 0.31668,-0.4394 0.37564,-0.6831 0.0263,-0.1992 0.20843,-0.4276 0.0577,-0.623 -0.15488,-0.2481 -0.54944,-0.022 -0.78325,-0.1195 -0.22023,-0.1916 -0.0247,-0.418 0.17112,-0.5051 0.10617,-0.1773 0.25714,-0.4142 0.29108,-0.6057 0.0899,-0.1871 0.1097,-0.4015 0.22901,-0.5786 0.30402,-0.1379 0.53079,0.1231 0.82354,0.1433 0.29522,0.056 0.60152,0.093 0.87541,0.1055 0.2425,0.1216 0.46357,-0.082 0.70548,-0.1249 0.0973,-0.2992 0.34925,-0.2151 0.49192,0.034 0.21529,0.1751 0.46466,0.298 0.71802,0.4016 0.20217,0.111 0.4095,0.2819 0.66102,0.3029 0.25842,0.2258 0.51416,0.4321 0.7955,0.6137 0.0577,0.2392 0.37599,0.3035 0.39449,0.5609 0.19906,0.116 0.22207,0.3538 0.405,0.4453 0.0777,0.2183 0.32861,0.2783 0.40669,0.4857 0.24635,0.1462 0.37977,0.3616 0.58118,0.5673 0.2351,0.095 0.36112,0.3978 0.6363,0.4602 0.054,0.1717 0.26168,0.342 0.42518,0.4443 0.22945,0.1976 0.54602,0.2066 0.79328,0.3218 0.26381,0.047 0.51139,0.114 0.75117,0.2261 0.23202,0.098 0.35471,0.2694 0.53827,0.4293 0.008,0.2463 0.24887,0.3581 0.38438,0.5269 0.15178,0.2636 0.48377,0.2773 0.728,0.3844 0.14825,0.1448 0.3162,0.2631 0.47192,0.3899 0.14315,0 0.22302,0.2566 0.43669,0.3328 0.18202,0.1572 0.39206,0.2027 0.57543,0.3552 0.1798,-0.061 0.0874,-0.2616 0.27608,-0.01 0.13744,0.1399 0.38859,0.2546 0.37936,0.443 -0.30287,0.1291 0.20587,0.1004 0.28437,0.2412 0.29076,0.061 0.097,0.3392 0.39298,0.3776 0.12121,0.1709 0.39443,0.1578 0.47661,0.4115 -0.0268,0.3056 0.29923,0.404 0.48854,0.5841 0.15536,0.1046 0.3442,0.2184 0.43724,0.3717 0.0719,0.1295 0.37718,0.4434 0.44088,0.1761 0.0414,0.053 0.39972,0.1739 0.35031,0.3582 -0.0571,0.3314 0.49229,0.057 0.64397,0.1458 0.0111,0.2185 -0.20045,0.4566 0.13041,0.5181 0.19197,0.2634 0.39288,-0.1376 0.54899,0.086 0.24935,0.1933 0.19495,0.4736 0.14963,0.7284 0.14145,0.2592 0.58435,0.197 0.61037,0.5261 0.23118,-0.1265 0.36374,0.3502 0.50266,0.515 0.094,0.1424 0.22222,0.3176 0.32104,0.4921 0.1554,0.2632 0.20512,0.6221 0.43772,0.8535 0.15435,0.1404 0.19321,0.279 0.32808,0.3814 0.14894,0.1598 0.30526,0.3064 0.48158,0.4497 0.17778,0.149 0.37867,0.3141 0.56558,0.4543 0.11577,0.2407 0.68299,0.1131 0.58686,0.3766 -0.13691,0.2344 -0.45935,0.1947 -0.68162,0.2839 -0.34316,0.061 -0.68651,0.1474 -0.996,0.3059 -0.23318,0.112 -0.48575,0.2183 -0.7313,0.283 -0.26592,0.092 -0.55943,-0.1324 -0.6992,-0.3242 -0.18464,-0.2067 -0.40767,-0.3764 -0.64396,-0.5236 -0.2814,-0.058 -0.58308,8e-4 -0.81935,0.1662 -0.17984,0.095 -0.27961,0.3286 -0.34624,0.54 -0.063,0.3183 0.05,0.6978 -0.18253,0.9932 -0.19695,0.073 -0.42928,-0.087 -0.57552,-0.1956 -0.26266,-0.1382 -0.56147,-0.1857 -0.85956,-0.1259 -0.25568,0.1239 -0.53258,0.013 -0.7906,-0.024 -0.30334,-0.1145 -0.63455,-0.065 -0.92349,0.056 -0.15371,-0.2007 -0.44517,-0.4506 -0.6682,-0.1729 -0.0984,0.1515 -0.48352,0.192 -0.23131,0.3051 0.19159,-0.044 0.43033,-0.3486 0.57108,-0.1994 0.12292,0.2072 0.36974,0.2536 0.59171,0.1857 0.31147,-0.033 0.61482,-0.012 0.8915,0.1136 0.21663,-0.1124 0.38671,0.3909 0.35097,0.016 0.24501,-0.1829 0.59298,-0.058 0.8504,0.06 0.15669,0.1896 0.48515,0.2044 0.7286,0.2082 0.24626,-0.078 0.42986,-0.2362 0.46119,-0.5022 0.0841,-0.2532 0.0832,-0.5248 0.14785,-0.7896 0.009,-0.2377 0.22893,-0.3546 0.43759,-0.3928 0.32204,-0.043 0.58824,0.1962 0.71019,0.4762 0.11515,0.2159 0.29472,0.3756 0.52484,0.4689 0.30939,0.1526 0.6288,0 0.95508,0.039 0.48756,-0.064 0.20126,0.2849 0.0188,0.4544 -0.20767,0.1484 -0.39185,0.3642 -0.52829,0.5488 -0.1088,0.2554 0.0481,0.4946 0.18879,0.7003 0.15009,0.2681 0.23065,-0.025 0.0189,-0.1893 -0.27177,-0.2062 -0.0443,-0.5164 0.15093,-0.6535 0.16555,-0.1525 0.33127,-0.2687 0.45331,-0.4443 0.20909,-0.123 0.27405,-0.3642 0.49844,-0.4666 0.26277,-0.092 0.45153,-0.2554 0.69761,-0.3589 -0.23242,-0.046 0.13141,-0.1731 0.32102,-0.196 -0.0438,0.09 0.0753,0.1774 0.27091,0.1508 0.28163,-0.052 0.55971,-0.1894 0.70274,-0.4643 0.15495,-0.2139 0.21975,-0.4757 0.43631,-0.6446 0.0607,-0.1867 0.15342,-0.3965 0.16986,-0.5946 0.0768,-0.3317 -0.27909,-0.3929 -0.28319,-0.6625 0.27642,-0.014 0.0446,-0.4032 0.32378,-0.2624 0.12627,-0.1577 0.32004,0 0.50326,-0.095 -0.0695,-0.3156 0.1938,0.1431 0.3034,-0.1194 0.13115,0.1624 0.36992,0.016 0.50136,-0.1693 0.25172,-0.1419 0.38464,-0.2479 0.67181,-0.1693 0.35764,-0.2423 0.22941,0.3328 0.4678,0.4557 0.21442,0.087 0.45722,0.4121 0.67988,0.2081 0.14981,-0.2138 0.27653,0.05 0.36575,0.1815 -0.19843,0.2426 -0.0281,0.4831 0.20514,0.6421 0.26605,0.111 0.44409,0.2637 0.66574,0.44 0.12774,0.1648 0.27573,0.3394 0.45694,0.4361 0.14922,0.1356 0.51886,0.2272 0.35568,0.4932 -0.25726,-0.1505 -0.37409,0.057 -0.38448,0.3088 0.0796,0.1551 -0.008,0.3747 0.20687,0.4766 0.1642,0.1455 0.40428,0.285 0.56988,0.4389 0.22627,0.1322 0.47084,0.209 0.46117,0.5537 0.18061,0.2205 0.036,0.4637 -0.0679,0.6783 -0.0976,0.1579 -0.21843,0.2796 -0.3011,0.4611 -0.2496,0.092 -0.40183,0.3449 -0.40999,0.5772 -0.21705,0.1672 -0.47724,0.2539 -0.67638,0.4245 -0.0876,-0.2116 -0.37983,-0.1934 -0.52009,-0.073 -0.22758,-0.166 -0.49805,-0.025 -0.71529,0.056 -0.2086,0.2022 -0.27798,0.4872 -0.47198,0.6914 -0.12392,0.2428 -0.25492,0.463 -0.3418,0.7069 -0.0351,0.2171 -0.1537,0.438 -0.17322,0.6454 0.004,0.179 -0.0607,0.38 -0.0614,0.5709 7.3e-4,0.2402 -0.087,0.5066 -0.12108,0.7458 -0.0996,0.2346 -0.16227,0.4878 -0.26567,0.7081 -0.0744,0.2186 -0.20265,0.3848 -0.27943,0.601 -0.0817,0.2436 -0.16964,0.477 -0.20664,0.7162 -0.15243,0.2654 -0.33057,0.5044 -0.53361,0.7459 -0.17965,0.1731 -0.26801,0.3444 -0.35865,0.5799 0.0637,0.2259 -0.0392,0.1465 -0.13454,0.3458 -0.077,0.2911 -0.45348,0.1754 -0.603,0.3993 -0.23619,0.2163 0.0153,0.7311 0.32973,0.7472 0.23943,0.1119 0.34838,0.4725 0.2394,0.712 -0.14223,0.1666 -0.21734,0.376 -0.31571,0.5491 0.10909,0.2032 0.24043,-0.3303 0.33525,-0.4076 0.18196,-0.243 0.0649,-0.5542 -0.0816,-0.7791 -0.12435,-0.1846 -0.36764,-0.2356 -0.46783,-0.4494 0.0209,-0.2813 0.4674,-0.2637 0.66017,-0.4082 0.21164,-0.1675 0.37708,-0.4098 0.35781,-0.6609 0.11119,-0.217 0.25014,-0.4491 0.45851,-0.5911 0.21966,-0.2043 0.4026,-0.4543 0.48681,-0.7373 0.12113,-0.1995 0.10578,-0.458 0.17461,-0.6802 0.028,-0.1552 0.16864,-0.2716 0.24084,-0.4366 0.14729,-0.1991 0.21186,-0.3901 0.3121,-0.5678 0.0773,-0.2666 0.11996,-0.5518 0.21667,-0.815 0.0741,-0.3182 0.0545,-0.6491 0.10528,-0.9494 0.0327,-0.2263 0.12931,-0.4339 0.20429,-0.6565 0.1001,-0.2044 0.23441,-0.3997 0.31566,-0.6197 0.10099,-0.1288 0.15456,-0.3192 0.29169,-0.3989 0.18603,-0.1221 0.26202,0.3066 0.50979,0.3184 0.21813,0.1871 0.54582,0.1227 0.81247,0.1872 0.24541,-0.01 0.54719,0.073 0.75284,-0.1291 0.18835,-0.096 0.43383,-0.149 0.59627,-0.3253 0.1761,-0.1891 0.39301,-0.3203 0.6036,-0.4693 -0.0111,-0.2374 0.29968,-0.3045 0.48083,-0.1956 0.26322,-0.034 0.55452,-0.067 0.83872,0.042 0.2768,-0.054 0.44596,0.141 0.62736,0.3021 0.34971,0.063 0.42472,0.3213 0.59318,0.5815 0.1614,0.2412 0.41799,0.3293 0.39324,0.6568 -0.0875,0.2838 0.15172,0.3227 0.35404,0.4824 0.0475,0.1588 0.48035,0.4231 0.39523,0.084 0.038,-0.3014 0.17903,0.2859 0.34623,0.2943 0.25528,0.1182 0.59461,-0.3071 0.61797,0.057 0.23581,0.1433 0.4876,0.2703 0.71145,0.4565 0.0387,0.2991 0.24946,0.4861 0.198,0.796 -0.0332,0.1683 0.13497,0.35 0.256,0.4792 0.13025,0.2309 0.43931,0.1538 0.60538,0.3306 0.17183,0.1577 0.28328,0.3887 0.28359,0.6505 0.17592,-0.075 -0.10189,-0.4268 -0.0898,-0.5857 -0.0631,-0.2521 -0.30957,-0.3873 -0.39831,-0.6049 -0.01,-0.384 0.29394,0.1915 0.47366,0.082 0.19921,0.1103 0.26699,0.2757 0.46573,0.4 0.0591,0.2195 0.5039,0.088 0.32781,0.4831 -0.22417,0.023 0.0284,0.3484 0.15934,0.3454 -0.0159,-0.3584 0.25507,-0.1496 0.4087,-0.029 0.21798,0.089 0.32072,0.3376 0.50729,0.5022 -0.23496,-0.1152 -0.0346,0.1946 0.0303,0.2732 0.28161,-0.2372 0.20804,0.2815 0.42915,0.3513 0.13909,0.1349 0.17468,0.2809 0.34857,0.323 -0.0127,-0.2331 -0.38018,-0.4724 -0.28922,-0.5623 0.22741,-0.14 0.25748,0.3 0.47887,0.2817 0.24732,0.1034 0.36522,0.3514 0.62064,0.4388 0.15678,0.2185 0.54034,0.1573 0.60746,0.4561 0.24254,-0.047 0.34294,0.2699 0.55563,0.3322 0.35694,-0.083 0.45403,0.2018 0.72096,0.3462 0.23833,0.2181 0.51535,0.2164 0.7963,0.3804 0.25415,0.085 0.38591,0.2506 0.51347,0.3969 0.0686,-0.1889 0.48995,-0.1015 0.39881,0.094 0.23968,0.094 -0.0258,0.083 0.0198,0.1465 0.21039,0.086 0.32884,0.4192 0.30339,0.6003 -0.17626,-0.043 -0.3175,-0.2134 -0.14396,0.047 0.10409,0.222 0.3572,0.1297 0.5345,0.2514 0.26161,0.037 0.39266,0.3151 0.54837,0.4805 0.10379,-0.3318 0.22464,0.096 0.19196,0.2433 0.18926,0.09 0.26217,0.3635 0.32121,0.5479 0.0589,0.2033 0.0932,0.4507 0.18764,0.6088 0.15811,0.2424 0.11811,0.62 0.13325,0.9249 -0.045,0.3254 0.003,0.6439 0.0703,0.9253 -0.0103,0.3195 0.0151,0.6729 0.12054,0.9849 0.0164,0.2976 0.0503,0.6308 0.0824,0.9555 0.10895,0.2392 0.10783,0.5359 0.29901,0.7064 0.13685,0.1379 0.28727,0.2915 0.281,0.4615 0.22674,0.1445 0.38662,0.3879 0.52511,0.6132 0.0376,0.2255 0.18422,0.4251 0.35823,0.5559 0.0444,0.2421 0.20339,0.4111 0.28491,0.6366 0.18407,0.2291 0.20772,0.5456 0.32,0.826 -0.0253,0.3013 0.0792,0.5922 0.0781,0.9101 0,0.3038 0.16009,0.5692 0.28164,0.8325 0.095,0.2624 0.19,0.5372 0.23743,0.8163 0.0442,0.2389 0.0822,0.5637 0.13362,0.7441 -0.007,0.2106 0.0403,0.4192 -0.0132,0.6503 -0.0355,0.303 -0.12514,0.6 -0.14958,0.9067 -0.11212,0.3324 -0.002,0.6705 0.0841,0.9956 0.0536,0.4143 0.24654,0.7878 0.27356,1.1985 0.071,0.2664 0.1122,0.5358 0.15082,0.8189 0.084,0.2851 0.0911,0.5817 0.11333,0.8741 0.0291,0.426 0.0988,0.8517 0.0376,1.2927 -0.0361,0.2923 -0.1059,0.5909 -0.20218,0.8544 -0.0857,0.2394 -0.22275,0.4833 -0.35252,0.7184 -0.12383,0.1846 -0.23296,0.3534 -0.35854,0.5397 -0.11791,0.2051 -0.30046,0.3963 -0.4747,0.5567 -0.14169,0.2331 -0.38107,0.3212 -0.57274,0.4709 -0.20121,0.097 -0.35279,0.2301 -0.56065,0.3037 -0.26833,0.1625 -0.56193,0.2997 -0.83528,0.4316 -0.23875,0.1205 -0.45165,0.1688 -0.70343,0.2977 -0.20306,0.1249 -0.39671,0.2286 -0.59222,0.3861 -0.1856,0.1472 -0.25773,0.3788 -0.42746,0.5135 -0.16398,0.1649 -0.34061,0.3369 -0.54647,0.44 -0.10841,0.1441 -0.36983,0.1604 -0.43535,0.375 -0.14819,0.2408 -0.46056,0.3082 -0.71756,0.2439 -0.28066,-9e-4 -0.573,0.011 -0.83298,0.019 -0.2449,0.076 -0.47329,0.1212 -0.7251,0.1518 -0.25688,-0.012 -0.5924,0.2284 -0.78764,-10e-4 -0.23575,-0.1788 -0.5499,-0.054 -0.80626,-0.1782 -0.20103,-0.079 -0.47321,-0.1087 -0.58985,-0.2851 -0.21702,-0.1965 -0.4934,-0.2054 -0.75258,-0.075 -0.20392,0.1168 -0.39099,0.2581 -0.52704,0.4609 -0.103,0.1712 -0.302,0.2673 -0.39824,0.4565 -0.15196,0.266 -0.078,0.6166 -0.236,0.8663 -0.20387,0.1741 -0.24327,0.454 -0.27229,0.7029 -0.17349,0.2735 -0.10427,0.5399 -0.17141,0.8479 -0.0308,0.2071 -0.17137,0.389 -0.33592,0.5265 -0.20333,0.1784 -0.47704,0.1275 -0.72576,0.1969 -0.27196,0.015 -0.54958,-0.018 -0.80781,0.039 -0.21077,0.1865 -0.52166,0.2238 -0.62316,-0.095 -0.27902,-0.09 -0.41103,0.2472 -0.67996,0.2461 -0.25112,0.1693 -0.57129,0.201 -0.86955,0.246 -0.28239,0.077 -0.50276,0.099 -0.75437,0.2561 -0.15714,0.1557 -0.27217,0.3211 -0.32794,0.547 -0.1284,0.2005 -0.24642,0.427 -0.41702,0.5975 -0.12304,0.2142 0.10686,0.5551 -0.0848,0.7711 -0.12681,0.1379 -0.34108,0.2718 -0.51091,0.2601 -0.22282,-0.01 -0.36589,-0.1824 -0.58741,-0.2172 -0.26217,-0.1425 -0.47848,0.142 -0.73097,0.1726 -0.22085,0.2841 0.19763,0.021 0.30843,0.1303 0.25612,0.2697 0.49429,-0.2133 0.72024,-0.031 0.26355,0.1563 0.5708,0.034 0.80221,-0.1087 0.27855,-0.1673 0.13022,-0.5968 0.19904,-0.8667 0.10632,-0.2042 0.28597,-0.3415 0.37942,-0.5405 0.14244,-0.1927 0.16583,-0.5318 0.43032,-0.6208 0.24905,-0.1305 0.51644,-0.2014 0.80282,-0.2214 0.34597,0.01 0.61088,-0.3332 0.96131,-0.2791 0.26697,2e-4 0.52505,0.018 0.7887,0.056 0.19214,-0.1416 0.36927,-0.2977 0.66024,-0.1891 0.31645,0.016 0.64644,0.054 0.93536,-0.081 0.17742,-0.083 0.33359,-0.2153 0.43967,-0.3927 0.14186,-0.1717 0.22475,-0.3751 0.23559,-0.6089 0.0386,-0.2644 0.0593,-0.4912 0.1803,-0.7346 0.072,-0.2575 0.29718,-0.4386 0.30945,-0.7119 0.0733,-0.247 0.12698,-0.5183 0.30849,-0.6995 0.10787,-0.1442 0.23035,-0.33 0.33365,-0.4928 0.18233,-0.1316 0.32721,-0.3518 0.55277,-0.4433 0.22645,0.016 0.37842,0.223 0.50376,0.3716 0.13736,0.1833 0.35334,0.2878 0.54957,0.3766 0.15324,0.1427 0.35597,0.2372 0.55827,0.3026 0.28275,0.088 0.64037,0.063 0.8083,-0.197 0.3097,-0.1064 0.61574,0.023 0.94374,0.017 0.34527,-0.044 0.69045,0.082 1.02323,-0.057 0.24698,-0.067 0.44286,-0.2419 0.67817,-0.3562 0.21424,-0.1273 0.41904,-0.3277 0.61679,-0.5085 0.17779,-0.1637 0.37778,-0.3507 0.63145,-0.4316 0.296,-0.1046 0.61708,-0.1032 0.91516,-0.209 0.26042,-0.06 0.53304,-0.1615 0.76889,-0.2887 0.29895,-0.1919 0.64859,-0.3407 0.86219,-0.6464 0.20664,-0.155 0.43495,-0.3035 0.69925,-0.3971 0.15631,-0.1709 0.41227,-0.2157 0.57753,-0.4002 0.18798,-0.1069 0.2959,-0.3172 0.50792,-0.3822 0.17341,-0.2424 0.35125,-0.4911 0.43629,-0.7814 0.0511,-0.2423 0.31242,-0.2999 0.39676,-0.521 0.13788,-0.1221 0.21121,-0.3741 0.40571,-0.4344 0.004,-0.078 0.035,-0.5019 0.18874,-0.6617 0.0607,-0.2663 0.15759,-0.4992 0.27601,-0.7524 0.0782,-0.2621 0.14224,-0.5137 0.16718,-0.7795 0.023,-0.3796 0.0799,-0.7649 0.0386,-1.146 0.0417,-0.4543 0.0218,-0.9377 -0.0465,-1.3917 -0.0474,-0.3271 -0.12694,-0.6315 -0.17838,-0.9491 -0.08,-0.3457 -0.104,-0.679 -0.0961,-1.0368 -0.0319,-0.3937 0.003,-0.8071 -0.0565,-1.2046 -0.0599,-0.2117 -0.004,-0.3929 -0.0468,-0.6336 0.0212,-0.2598 -0.0338,-0.4732 0.0263,-0.7227 0.0138,-0.2627 0.0618,-0.5415 0.0802,-0.827 0.0415,-0.4211 0.0208,-0.8616 0.0464,-1.3085 -0.019,-0.2367 -0.0383,-0.4835 0.002,-0.686 0.016,-0.3097 0.058,-0.5475 0.006,-0.8681 0.016,-0.3427 0.006,-0.712 0.0194,-1.0658 -0.0336,-0.4367 0.0459,-0.8693 0.0839,-1.2981 0.0904,-0.2606 -0.0307,-0.6221 0.28018,-0.8085 -0.0725,-0.2884 0.25111,-0.5218 0.36955,-0.7695 0.11458,-0.174 0.182,-0.3801 0.21696,-0.5927 0.005,-0.2459 0.0464,-0.5466 0.34561,-0.6048 -0.14935,-0.058 -0.0761,-0.2762 0.1247,-0.3669 0.21979,-0.019 0.68066,-0.1897 0.75599,0.076 0.31847,0.094 0.63361,0 0.95034,0.1342 0.20133,0.088 0.4024,0.2063 0.57429,0.336 0.37447,-0.077 0.21599,0.2817 0.48318,0.3059 0.34261,-0.035 0.32619,0.2508 0.55485,0.3501 0.24615,0.047 0.41487,0.2678 0.6478,0.3491 0.18741,0.1942 0.5336,0.1277 0.64577,0.4227 0.18195,0.19 0.36561,0.2067 0.53775,0.4044 0.15026,0.2496 0.32968,0.4616 0.60423,0.5758 0.38217,0.1128 -0.11478,0.327 0.15118,0.4164 0.19798,0.1163 0.3191,0.309 0.57386,0.2814 0.36099,0.1043 0.0724,0.2867 0.32832,0.4693 0.19709,0.2169 0.30519,0.4617 0.45593,0.6987 0.24569,0.3227 0.28891,0.1011 0.11899,-0.1581 0.0531,-0.1519 0.3228,0.3664 0.33285,0.538 0.054,0.1819 0.19636,0.3212 0.21175,0.5087 0.17005,0.4 -0.19421,-0.1779 -0.21152,-4e-4 0.002,0.2811 0.32239,0.3952 0.33853,0.5817 -0.0817,0.3351 0.45607,0.2535 0.38155,0.6134 -0.0465,0.2297 -0.11886,0.4895 -0.15092,0.7061 0.1445,0.1964 0.14643,0.4597 0.27589,0.6639 -0.006,0.3111 0.15296,0.5836 0.13956,0.8598 -0.0228,0.3293 0.25365,0.5539 0.16986,0.8633 0.0567,0.2284 0.23675,0.4204 0.17352,0.6489 0.11508,0.2304 0.0412,0.3825 0.0645,0.6011 -0.0359,0.2522 -0.008,0.5509 0.0666,0.8184 0.033,0.2563 -0.23026,0.5556 -0.0193,0.7722 0.15482,0.2502 0.0945,0.4116 0.083,0.659 0.10373,0.1886 0.12605,0.4306 0.27489,0.6057 0.10596,0.1794 0.231,0.373 0.37653,0.5321 0.11127,0.2024 0.35683,0.2551 0.41649,0.4901 0.12837,0.2487 0.35838,0.2925 0.56644,0.4449 -0.039,0.173 -0.11931,0.3141 -0.0929,0.5422 -0.12087,0.1579 -0.49287,0.1726 -0.28277,0.5153 0.1438,0.2239 -0.25695,0.3915 -0.0206,0.6364 -0.0822,0.3057 0.16974,0.2252 0.33347,0.1723 -0.16248,0.2286 0.1503,0.1252 0.21292,0.3498 0.18209,0.1593 0.27273,0.3948 0.43439,0.5858 0.19849,0.083 0.34138,0.2067 0.50787,0.3426 0.16174,0.2229 0.43457,0.2706 0.62178,0.4813 0.20534,0.072 0.41428,0.049 0.53436,0.2716 0.10167,0.3087 0.45896,0.049 0.67325,0.028 0.0913,-0.2044 0.15497,-0.4332 0.3631,-0.4146 0.15032,0.1439 0.57218,-0.034 0.43332,0.3974 -0.23715,0.1864 0.0963,0.5351 -0.16068,0.5581 -0.20326,-0.1911 -0.39959,-0.012 -0.5842,0.1043 -0.17695,0.1026 -0.35181,0.2744 -0.41681,0.4786 -0.0925,0.2337 -0.12085,0.5911 -0.32723,0.7056 0.24243,0.1683 -0.2818,0.036 -0.28511,0.3112 -0.0245,0.2749 -0.23943,0.5594 -0.0562,0.8546 0.0114,0.2801 -0.0331,0.5129 0.075,0.7545 0.0435,0.2317 0.15982,0.4793 0.19463,0.7189 0.1425,0.2262 0.14805,0.5151 0.27747,0.7573 0.16845,0.1648 0.12965,0.4251 0.2767,0.6156 0.14905,0.2264 0.28595,0.4481 0.35841,0.7135 0.13091,0.1712 0.24689,0.3315 0.40349,0.4801 0.13888,0.1989 0.24777,0.4326 0.39509,0.6212 0.12805,0.2136 0.36711,0.4989 0.55757,0.5628 0.37535,0.027 0.0581,0.274 0.0893,0.4745 0.0761,0.2563 0.20821,0.5137 0.39321,0.7154 0.20009,0.2013 0.5041,0.2678 0.68761,0.3913 0.25494,0.114 0.29263,0.4363 0.32742,0.6699 0.2765,0.1633 -0.0202,0.471 -0.11358,0.6567 0.0826,0.043 0.41767,-0.013 0.59753,0.1734 0.22539,0.1555 0.41857,0.3642 0.58822,0.5883 0.18682,0.1516 0.32547,0.3554 0.38908,0.5849 0.12251,0.2324 0.26418,0.4474 0.18649,0.7211 -0.0899,0.1323 -0.21908,0.3773 -0.27451,0.5743 -0.15866,0.2342 -0.17326,0.4964 -0.30211,0.7507 -0.0698,0.2311 -0.12497,0.444 -0.22072,0.6538 -0.0693,0.2837 -0.14796,0.5625 -0.26445,0.8339 -0.11025,0.344 -0.0836,0.7208 -0.20607,1.0543 -0.0218,0.2891 -0.16104,0.5797 -0.25654,0.8499 -0.0402,0.2223 -0.12867,0.4155 -0.0904,0.6742 -0.0114,0.2681 -0.0468,0.5908 -0.019,0.8567 0.0392,0.2022 -0.0275,0.4619 -0.0383,0.6714 -0.0271,0.2418 -0.0696,0.4677 -0.0651,0.7284 -0.011,0.2808 -0.0712,0.5725 -0.0328,0.843 0.0397,0.2692 0.0443,0.5191 0.14189,0.776 0.01,0.1753 -0.17985,0.3492 -0.30129,0.4568 -0.1362,0.1425 -0.27695,0.3366 -0.43515,0.4308 -0.15981,0.1676 -0.32016,0.2624 -0.52872,0.3854 -0.23854,0.1086 -0.40974,0.2733 -0.61482,0.4293 -0.21047,0.1964 -0.33732,-0.2 -0.57902,-0.157 -0.28814,0.026 -0.5785,0.098 -0.77602,0.3368 -0.18309,0.1426 -0.34122,0.282 -0.40756,0.4921 -0.13282,0.1201 -0.29337,0.2078 -0.41764,0.3271 -0.12628,0.2052 -0.36322,0.2136 -0.55237,0.3196 -0.18226,0.077 -0.27859,0.328 -0.49024,0.2626 -0.25549,0.04 -0.56809,0.051 -0.81956,0.1499 -0.20021,0.1259 -0.34511,0.2785 -0.5339,0.4172 -0.19543,0.061 -0.30235,0.244 -0.45119,0.3407 -0.14077,0.2392 -0.0361,0.5502 -0.33776,0.6351 -0.1521,0.1276 -0.30982,0.2911 -0.47419,0.406 -0.19724,0.1382 -0.30334,0.3809 -0.45331,0.5588 -0.19723,0.2413 -0.23581,0.5143 -0.39652,0.7682 -0.11862,0.2758 -0.11365,0.5885 -0.0565,0.8875 0.0147,0.1826 0.007,0.3833 0.0855,0.6057 0.0761,0.2042 0.0166,0.431 0.0614,0.626 -0.009,0.2237 0.0475,0.4646 -0.0524,0.6612 -0.17683,0.2112 -0.1982,0.4602 -0.30108,0.6979 -0.075,0.2895 -0.24772,0.554 -0.41776,0.7966 -0.0854,0.1906 -0.1919,0.3248 -0.22537,0.5418 -0.0648,0.2098 -0.19179,0.4275 -0.35891,0.5579 -0.19285,0.244 -0.48009,0.3725 -0.67971,0.6057 -0.0739,0.2672 -0.31611,0.1315 -0.47197,0.2639 -0.19725,0.1201 -0.3298,0.3966 -0.26953,0.6354 0.0254,0.3058 -0.29823,0.5652 -0.54269,0.5571 -0.24016,-0.018 -0.47803,0.1268 -0.70329,0.19 -0.20966,0.062 -0.39852,0.2381 -0.56171,0.3967 -0.22822,0.1089 -0.28249,0.3598 -0.26334,0.5835 -0.0329,0.2303 -0.28599,0.2644 -0.45639,0.3759 -0.18078,0.1902 -0.222,0.4866 -0.31888,0.7263 -0.21548,0.1456 -0.26642,0.4038 -0.37416,0.6096 -0.0926,0.2136 -0.32289,0.4353 -0.2641,0.7306 -0.17727,0.126 -0.24186,-0.49 -0.41612,-0.1839 -0.338,-0.1746 -0.12924,0.3145 -0.36312,0.1676 -0.0446,0.2824 -0.32001,0.054 -0.44305,0.2461 -0.24604,-0.025 -0.15737,-0.3592 -0.43319,-0.4136 -0.35793,-0.1523 -0.41071,0.3285 -0.42833,0.5594 0.0604,0.2368 0.0939,0.5427 -0.21629,0.4357 -0.27086,-0.3094 -0.18299,0.089 -0.33645,0.2344 -0.17126,0.082 -0.39707,0.1563 -0.46988,0.3545 -0.38614,0.1234 -0.0344,0.6296 -0.38473,0.7809 -0.18934,0.1973 0.0951,0.3477 0.20358,0.513 0.12897,0.1935 0.1548,0.4806 0.16793,0.7077 -0.0865,0.1794 0.25871,0.2308 0.24749,0.4411 -0.0236,0.1642 -0.17762,0.328 -0.23776,0.5213 0.006,0.2628 0.20708,0.4761 -0.0598,0.6774 0.0419,0.3064 -0.30095,0.3591 -0.49767,0.2698 -0.23916,0.033 -0.50968,-0.1262 -0.73777,-0.01 0.0999,0.393 -0.27701,-0.03 -0.46186,0 -0.10189,0.2296 -0.19888,0.011 -0.40249,-0.032 -0.0813,0.2414 -0.21143,-0.029 -0.32601,0.1894 0.0626,0.2039 -0.1591,0.3725 -0.32264,0.1668 -0.21608,0.1429 -0.1888,0.2724 0.12565,0.1856 0.33364,-0.074 0.2181,0.3915 -0.009,0.073 -0.17007,0.2904 -0.32686,-0.1 -0.43492,0.078 0.0502,0.3337 -0.20041,0.3252 -0.41532,0.3161 -0.13387,-0.24 -0.17089,0.3282 -0.0503,0.3784 -0.27146,0.1219 -0.23607,0.4692 -0.3274,0.7157 0.0169,0.2533 -0.006,0.4485 -0.0466,0.6717 -0.0498,0.2065 -0.17128,0.3062 -0.37789,0.322 0.0199,0.2569 -0.35223,0.3619 -0.21179,0.663 0.10913,0.231 -0.3044,0.3599 -0.17498,0.6541 0.17551,0.2105 0.16944,0.5073 0.0121,0.7201 -0.24751,0.1865 -0.22583,0.5328 -0.20301,0.8007 -0.0201,0.2767 -0.15421,0.498 -0.21502,0.7572 -0.24743,0.1384 -0.16804,0.5049 -0.23697,0.7583 -0.0694,0.2654 -0.28333,0.3867 -0.46628,0.5443 -0.20015,0.1932 -0.37781,0.3942 -0.53472,0.5914 -0.16689,0.1879 -0.36309,0.3893 -0.64174,0.3838 -0.2617,0.06 0.0602,0.4395 -0.12544,0.6112 -0.17674,0.1471 -0.33026,0.2871 -0.21359,0.5293 -0.21144,0.1195 -0.38378,0.3473 -0.37784,0.6146 -0.16892,0.1973 -0.28624,0.4521 -0.35817,0.6852 -0.18182,0.1997 -0.35712,0.3624 -0.35939,0.6497 -0.18408,0.132 -0.26444,0.3487 -0.36864,0.539 -0.0934,0.2523 -0.30213,0.4407 -0.36785,0.7045 -0.0871,0.2141 -0.18967,0.446 -0.32289,0.6204 -0.2084,0.2071 -0.51421,-0.082 -0.72399,0.1291 -0.24096,0.13 -0.23369,0.5094 -0.0271,0.6377 0.19806,0.2153 -0.20342,0.3495 -0.24552,0.5611 -0.20527,0.1927 -0.25885,0.5639 -0.56463,0.6125 -0.22319,0.1432 -0.41042,0.1216 -0.55281,0.3689 -0.0621,0.2052 -0.38647,0.25 -0.24453,0.5042 0.10149,0.2638 0.22744,0.5207 0.0486,0.7908 0.061,0.2848 -0.23149,0.4036 -0.41896,0.5594 0.17326,-0.012 0.18578,0.098 -0.0189,0.2561 l -0.25117,0.1397 c 0.002,-0.02 -0.0346,-0.034 -0.13758,-0.034 -0.23754,0.2099 -0.24142,0.5715 -0.45363,0.8033 -0.10257,0.2971 -0.36337,0.4493 -0.35442,0.7657 -0.27118,0.056 -0.13074,0.368 -0.30239,0.5117 -0.18532,0.2119 -0.26299,0.4897 -0.49641,0.6437 0.0101,0.3361 -0.22051,0.6142 -0.35315,0.9084 -0.0668,0.2477 -0.25024,0.4714 -0.35891,0.7192 -0.27466,0.226 -0.43939,0.5282 -0.64209,0.795 0.0488,0.3536 -0.21687,0.6198 -0.32136,0.9342 -0.15184,0.2284 -0.34368,0.4598 -0.45274,0.7594 -0.10916,0.2793 -0.4554,0.3236 -0.5575,0.6103 -0.1154,0.2375 -0.28552,0.4066 -0.43934,0.5937 -0.27916,0.2058 -0.32731,0.5289 -0.4777,0.8246 -0.20312,0.1877 -0.28985,0.4059 -0.52437,0.4777 -0.42122,0.1595 -0.16742,0.5982 -0.17282,0.9244 0.38422,0.2439 -0.008,0.4205 -0.18171,0.6062 -0.14992,0.2004 -0.44654,0.2315 -0.5168,0.4779 -0.41712,0 -0.33543,0.4395 -0.52877,0.6901 -0.0694,0.3364 -0.33822,0.3922 -0.31961,0.7351 -0.25265,0.1536 -0.38581,0.4707 -0.55169,0.7062 -0.2799,0.1367 -0.33335,0.6842 -0.69608,0.6132 -0.2564,-0.2902 -0.31795,0.3611 -0.62316,0.2274 -0.0308,-0.3319 -0.27736,-0.5254 -0.35569,-0.7777 -0.23361,-0.1573 -0.65717,-0.2995 -0.89105,-0.081 -0.46116,0.1224 0.11686,0.6862 -0.24202,0.8459 0.22581,-0.031 0.19444,0.1188 -0.0202,0.1705 -0.13522,0.01 -0.36838,-0.1959 -0.47386,0.2021 -0.15428,0.405 -0.48824,-0.156 -0.71552,0.028 -0.2201,0.2468 -0.65425,-0.2605 -0.62744,0.1884 0.12104,0.3564 -0.04,0.6834 -0.0153,1.0407 -0.0807,0.379 -0.28816,0.692 -0.54423,0.9746 -0.54968,-0.2001 -0.45121,0.5321 -0.36349,0.8518 10e-4,0.4288 0.37251,0.4563 0.43483,0.8317 0.0614,0.3428 -0.21972,0.5869 -0.51252,0.3413 -0.41536,-0.2496 -0.59403,0.312 -0.93497,0.3205 -0.26317,0 -0.55317,-0.2279 -0.74075,0.039 0.0348,0.3304 -0.13637,0.5693 -0.0819,0.8692 0.002,0.2483 -0.19895,0.5531 -0.45532,0.7031 -0.27366,0.3062 0.23495,0.4312 0.19447,0.6066 -0.24039,0.3545 -0.44899,0.1885 -0.75339,0.1139 -0.17111,0.261 -0.45088,0.6135 -0.23129,0.9367 0.18395,0.2766 0.5264,0.2302 0.80369,0.1797 0.28075,0.1251 -0.18167,0.5072 -0.26424,0.6941 -0.26238,0.247 -0.14719,0.6778 -0.0657,0.9798 0.0563,0.2875 0.34495,0.3173 0.48205,0.5407 0.29955,0.067 0.44096,0.37 0.66127,0.5514 0.22612,0.2406 0.004,0.6424 -0.22104,0.8475 -0.15396,0.2604 -0.27454,0.5787 -0.44922,0.8536 -0.25044,0.2198 -0.35994,0.5419 -0.50352,0.8435 -0.098,0.3307 -0.28889,0.61 -0.43108,0.9168 -0.0319,0.3559 -0.21935,0.6276 -0.59872,0.7105 -0.26486,0.1866 -0.23022,0.5525 -0.21323,0.8416 -0.22761,0.2565 -0.0889,0.7112 -0.43598,0.9116 -0.29242,0.3122 0.3354,0.7118 -0.0466,1.0478 -0.0887,0.2732 -0.25475,0.5546 -0.3857,0.8282 -0.18018,0.3043 -0.31786,0.6606 -0.50104,0.9797 -0.23055,0.1816 -0.71086,0.014 -0.69929,0.4322 0.42015,0.1331 0.23174,0.6602 -0.0608,0.8466 -0.2432,0.3014 0.0788,0.4612 0.31521,0.5909 -0.0641,0.3907 0.2309,0.5054 0.56579,0.4215 0.21775,-0.295 0.45538,-0.2055 0.23806,0.1496 -0.16976,0.2087 -0.3334,0.4223 -0.51971,0.6029 -0.20198,0.2935 -0.28434,0.778 -0.7636,0.5899 -0.25258,-0.092 -0.59912,-0.4726 -0.79391,-0.066 -0.01,0.2578 -0.19008,0.4654 -0.47778,0.2372 -0.32756,0.01 -0.50654,0.2832 -0.53591,0.5876 -0.1252,0.3283 -0.34316,0.6141 -0.49725,0.9398 -0.24816,0.2741 -0.31292,0.6638 -0.55746,0.9249 -0.0227,0.09 -0.0107,0.1093 3.7e-4,0.1142 -0.052,0.075 -0.11937,0.1663 -0.23266,0.2821 -0.42201,0.5763 -0.54459,1.313 -0.90629,1.9269 -0.35178,0.7303 -0.74244,1.441 -1.17852,2.1242 0.0115,0.4446 -0.31944,0.7302 -0.39614,1.1139 0.2787,0.4331 0.32875,0.9978 -0.22581,1.2541 -0.0521,0.3233 0.20848,0.6242 -0.0633,0.9646 -0.19379,0.4855 -0.37154,1.0109 -0.8349,1.31 -0.38779,0.4481 -0.48016,1.0499 -0.73889,1.5699 -0.17429,0.521 -0.49065,0.9466 -0.89259,1.3217 0.1183,0.6266 -0.4884,1.0562 -0.52636,1.593 -0.007,0.244 -0.33123,0.4532 -0.39761,0.6928 -0.32306,-0.3747 -1.24245,-0.3317 -1.2691,0.2256 -0.1951,0.3949 -0.38206,0.7932 0.0661,1.1357 0.60294,-0.012 0.62444,1.0926 0.108,1.1372 -0.19214,0.5186 0.77673,0.2857 0.90807,0.7698 0.43031,0.4511 0.57141,1.3132 0.15988,1.8356 -0.35034,0.3278 -0.46794,0.7443 -0.47864,1.1609 -0.34464,0.1226 -0.67291,-0.7123 -0.9142,-0.046 -0.23561,0.4104 -0.64866,0.8166 -0.20209,1.2672 0.0857,0.2984 0.10126,0.6452 0.47868,0.6446 0.17413,0.4674 -0.14986,1.0664 -0.6916,1.1853 -0.57373,0.3462 -0.97829,0.9267 -1.4587,1.3943 -0.40023,0.274 -0.45619,0.6598 -0.72938,1.083 -0.12927,0.6356 -0.8691,0.016 -1.30039,0.3105 -0.51077,-0.1472 -0.86492,0.6166 -0.49335,0.9376 0.49096,0.1965 0.85862,0.7295 0.19919,0.9848 -0.36641,0 -0.69533,0.1054 -0.99534,0.26 -0.2024,-0.6243 -0.55601,0.2933 -0.77307,0.4754 -0.55984,0.2824 0.25945,1.001 -0.35967,1.3568 -0.35506,0.3758 -1.0301,0.8877 -0.51806,1.4211 -0.24244,0.4222 -0.29191,1.0047 -0.52695,1.3853 -0.5151,-0.1614 -0.7288,0.4934 -1.24686,0.1925 -0.58894,0.01 -1.04442,0.4429 -1.59491,0.5947 -0.58624,0.1033 -0.95841,0.6276 -0.94923,1.1718 -0.57916,0.1995 -1.12218,0.4286 -1.66113,0.5282 -0.40184,0.3651 -0.92685,0.5327 -1.36938,0.7327 -0.12331,0.3618 -0.59072,0.01 -0.66304,0.5068 -0.17954,0.1543 -0.47414,-0.3766 -0.5212,0.142 -0.0755,0.3056 -0.53099,0.1104 -0.50222,0.5397 -0.2641,0.1743 -0.54748,0.2878 -0.7559,0.5242 -0.58492,-0.03 -1.07003,0.5126 -1.68505,0.4199 -0.37048,-0.067 -0.58189,0.2495 -0.93895,0.1749 -0.26509,0.215 0.4924,0.7694 -0.15064,0.7328 -0.36018,0.147 -0.7337,-0.1468 -1.04292,0.019 -0.0463,0.1849 0.28454,0.2261 0.14013,0.4526 0.0887,0.2093 0.50329,0.1921 0.19713,0.4581 -0.17241,0.5152 -0.84907,0.346 -1.23915,0.4942 0.002,0.5247 -0.55148,0.7886 -0.7075,1.16 0.23083,0.024 0.63843,0.2001 0.17312,0.3215 -0.29543,0.1612 -0.99073,-0.2135 -0.65164,0.3665 -0.0567,0.4743 0.0889,1.0253 -0.42243,1.2405 -7.3e-4,0.5657 -0.65949,0.8997 -0.76399,1.4529 0.0352,0.8026 -0.69509,-0.089 -1.13646,0.061 -0.47748,0.379 -1.06517,-0.5173 -1.26097,0.2659 0.23217,0.6175 -0.42831,0.8793 -0.90103,0.9759 -0.3866,0.1464 -0.78246,-0.043 -1.17847,0.2289 -0.51149,-0.1719 -1.19806,0.5981 -1.55246,-0.1132 -0.34612,-0.1235 -0.48938,-0.4321 -0.86525,-0.2579 -0.34625,-0.1609 -0.72941,-0.1015 -1.15188,-0.312 -0.43346,-0.081 -0.76068,-0.4374 -1.2218,-0.274 -0.48415,-0.1596 -0.87814,-0.3668 -1.28862,-0.6556 -0.33796,-0.4213 -0.4965,-0.9365 -0.87056,-1.3249 -0.30026,-0.344 -0.64417,-0.7366 -1.13001,-0.4767 -0.50366,-0.2071 -0.97347,-0.2768 -1.50232,-0.1786 -0.53405,-0.097 -1.07906,0.1389 -1.59511,-0.1189 -0.46776,0.2918 -0.93605,0.5656 -1.51579,0.3297 -0.39175,0.4272 -0.97265,0.091 -1.42181,0.4205 -0.4468,0.3734 -1.11062,0.036 -1.6635,0.1901 -0.59935,-0.1536 -0.71519,0.7892 -1.22632,0.5538 -0.62804,0.4435 -0.80212,-0.7263 -1.44079,-0.5502 -0.45547,-0.206 -0.59325,0.2586 -0.50337,0.6192 -0.36837,0.1161 -0.79795,0.1598 -0.84176,0.6532 -0.32205,0.2813 -0.88669,0.8231 -1.31819,0.3754 0.005,-0.5504 0.71387,-0.845 0.80051,-1.4156 0.0937,-0.5813 0.47736,-1.0106 0.75197,-1.5068 0.14927,-0.6589 0.87086,-0.7105 1.26887,-1.1458 0.71401,-0.3195 1.04915,-1.3089 0.58676,-1.9587 -0.32842,-0.4701 -0.90977,-0.6387 -1.45675,-0.6557 -0.64504,-0.032 -1.10228,-0.4773 -1.5762,-0.8489 -0.54243,-0.3112 -1.17855,-0.3646 -1.66664,-0.7881 -0.48554,-0.2818 -0.66028,-0.9051 -0.99527,-1.2936 0.0954,-0.4869 -0.13293,-1.1837 -0.70294,-0.7433 -0.72395,0.3421 -0.4079,-0.9625 -1.17676,-0.7297 -0.46392,-0.01 -1.21233,-0.1223 -1.35064,0.4644 0.13095,0.525 0.0534,1.0184 -0.41874,1.344 -0.14081,0.521 -0.54027,0.6652 -1.02433,0.6106 -0.52628,0.2588 -1.3024,0.2874 -1.43352,0.9892 -0.17465,0.6338 -0.84942,0.8888 -1.44817,0.7418 -0.73394,-0.3177 -0.99021,0.8243 -1.64443,0.5338 -0.37782,-0.092 -1.20946,-0.8534 -1.27786,-0.087 -0.11962,0.6832 0.94444,0.5946 0.90979,1.1473 -0.37291,0.5341 -1.04435,0.7445 -1.62859,0.3957 -0.68964,-0.1779 -1.37053,0.033 -2.02646,0.1456 -0.43393,0.1387 -0.79843,-0.049 -1.1307,-0.2188 -0.45988,-0.011 -0.83209,0.9754 -1.08983,0.2407 -0.36835,0.2873 -0.89428,0.075 -1.27857,-0.1835 -0.23695,-0.5255 -1.00081,-0.4835 -1.50281,-0.6104 -0.15152,0.1953 -0.49848,0.6241 -0.59853,0.1064 -0.2738,-0.429 -0.64758,-0.8857 -1.16014,-0.8921 0.001,-0.2706 -0.23253,-0.4403 -0.22993,-0.1239 -0.38224,0.1788 -0.98626,1.0906 -1.14527,0.2185 -0.39598,-0.2484 -0.75724,0.3953 -1.10941,-0.1082 -0.32979,-0.1331 -0.8689,0.337 -1.09422,-0.106 0.14579,-0.3777 0.62751,-0.9963 0.35378,-1.2837 -0.2088,0.049 -0.53976,0.4205 -0.64645,-0.041 -0.15515,-0.5306 -0.98792,-0.4288 -0.73916,0.1936 -0.28087,0.084 -0.64143,0.2891 -0.65032,-0.1585 -0.26711,0.3269 -0.63183,0.1342 -0.55109,-0.2585 0.15694,-0.4415 -0.78604,-0.87 -0.96827,-0.3577 -0.50378,0.1083 -0.9162,-0.5828 -1.32721,-0.082 -0.24238,0.5679 -0.92325,0.2028 -1.26205,0.063 0.33431,-0.3836 -0.55278,-0.4497 -0.22467,-0.9136 0.28748,-0.2163 0.85953,0.4149 1.05133,-0.059 -0.12303,-0.2891 -0.63209,-0.4851 -0.14423,-0.7695 0.47145,0.04 1.22965,-0.8282 0.48477,-0.9171 -0.15953,-0.3185 -0.50961,-0.423 -0.52205,-0.7869 -0.47166,-0.2112 -0.53568,0.6928 -0.95172,0.1484 -0.62509,-0.4762 1.01444,-0.3641 0.68703,-0.8944 0.10856,-0.4525 -0.51266,0.2282 -0.75892,0.1556 -0.39259,0.077 -0.478,-0.3903 -0.82885,-0.2923 -0.36555,-0.4627 -0.71457,0.4536 -1.18953,0.1297 -0.36503,0.024 -0.22683,0.536 -0.69788,0.4572 -0.61663,-0.036 -0.61769,0.754 -1.2118,0.6847 -0.42285,0.2218 -0.0598,0.8993 -0.6615,1.0287 -0.40661,0.2645 -1.21903,0.2214 -1.27057,0.8146 0.1747,0.5004 0.90208,0.2267 1.16458,0.2946 -0.11086,0.3586 0.48135,0.8049 -0.20239,0.8426 -0.38611,0.1678 -0.7659,-0.2156 -0.87828,0.3346 -0.24639,0.3429 -0.7025,-0.2518 -1.05903,0.1238 -0.38524,0.2543 -0.12569,-0.9295 -0.63702,-0.4824 -0.1897,0.2125 -0.29978,0.5657 -0.593,0.1738 -0.31893,0.01 -0.62692,-0.024 -0.92931,-0.017 -0.44643,0.3776 0.0864,1.1213 -0.32147,1.5872 -0.25342,0.4029 0.35438,0.6252 -0.1252,0.9312 -0.20228,0.029 -0.13545,-0.4923 -0.41682,-0.1654 0.0896,0.5 -0.53812,0.3479 -0.59681,0.7828 -0.47165,0.4883 -1.01626,-0.115 -0.67866,-0.6163 0.16601,-0.6744 -0.5158,-0.4502 -0.75906,-0.1588 -0.27099,-0.071 -0.42092,-0.1645 -0.4982,-0.378 -0.62795,0.089 -0.20699,0.7546 -0.48097,1.1779 0.0826,0.4401 0.0278,0.8502 -0.0876,1.2648 0.29057,0.2339 0.61878,0.5712 0.0943,0.8267 -0.0787,0.2999 0.0974,1.0189 -0.49367,0.7776 -0.3684,-0.1365 -0.52341,0.4597 -0.90067,0.092 -0.49047,0.1042 -0.68952,0.7822 -1.29421,0.672 -0.28818,0.1391 -0.56865,-0.26 -0.77085,0.1712 -0.25327,0.1936 -0.63834,0.5194 -0.85347,0.1674 -0.33915,0.5142 -0.37712,1.2595 -0.9914,1.552 -0.4422,0.4503 -0.57451,-0.6076 -0.90841,-0.1397 -0.41978,-0.4561 -1.17458,-0.1193 -1.64279,-0.514 -0.12678,-0.5202 -0.89463,-0.2151 -0.88056,0.2638 -0.57977,0.073 -0.13856,1.0459 -0.79505,0.9301 -0.47372,0.1948 -0.25537,0.9798 -0.55979,1.343 0.11383,0.3985 0.0784,0.8197 0.43284,1.1222 -0.18018,0.4501 -0.847945,-0.68 -0.873795,0.093 0.14214,0.5612 -0.84933,0.585 -0.85914,1.1079 0.24563,0.2029 0.53182,0.7607 -0.007,0.4905 -0.55077,-0.1951 -1.0452,-1.2024 -1.62073,-0.5878 -0.45714,-0.099 -0.65602,0.7076 -1.00986,0.1597 -0.3379,-0.073 -0.54468,-0.3482 -0.81922,-0.1414 0.14121,-0.6172 -0.47761,-0.9643 -0.9296,-1.1174 -0.0966,-0.5658 -0.65749,-0.8887 -0.75356,-1.4127 -0.23252,-0.3293 -0.0225,-1.3785 -0.61183,-0.9302 -0.26095,0.2526 -0.68175,0.1055 -0.7481,0.4488 -0.49176,0.395 -1.10662,0.5104 -1.51564,0.9987 -0.53715,0.4226 -0.93176,-0.1135 -1.25175,-0.4901 -0.31572,0.4595 -0.63018,-0.1 -0.95922,0.1085 -0.16579,0.3565 -0.6489,0.551 -0.9608,0.6615 -0.9881,-0.3429 -2.02389,-0.5425 -2.97381,-0.9915 -0.52008,-0.372 -0.5295,0.5957 -1.11364,0.3527 -0.42973,0.123 -1.20813,-0.1071 -0.67907,-0.6299 0.43677,-0.3159 0.13685,-0.548 -0.23328,-0.6775 -0.30772,-0.2158 -0.43306,0.3016 -0.79734,-0.027 -0.44722,-0.1114 -0.43169,-0.7257 -0.54594,-1.0553 0.45989,-0.025 0.12829,-0.4388 0.47313,-0.5921 0.05,-0.3214 0.54502,-0.567 0.0207,-0.7699 -0.44398,-0.7215 -0.596,0.6274 -1.20447,0.2987 -0.68611,-0.2401 -1.19949,0.341 -1.80673,0.4384 -0.35481,-0.2121 -1.46857,0.3219 -1.10253,-0.4428 0.0732,-0.3831 -0.0814,-0.7873 -0.54665,-0.619 -0.6154,-0.1195 -1.01909,0.5668 -1.60398,0.5363 -0.54294,-0.233 -1.20127,-0.2923 -1.58111,-0.7189 -0.73126,0.3053 0.10744,-0.889 -0.49706,-0.9243 -0.22494,-0.6427 -1.26003,0.2049 -1.14423,-0.6519 0.13794,-0.4091 -0.34097,-1.3286 -0.78961,-0.9593 -0.65601,0.415 -1.05969,-0.412 -1.5726,-0.6589 -0.28648,-0.061 -1.24738,-0.3608 -0.74349,-0.7145 0.54098,-0.055 1.03572,-0.4289 1.58289,-0.3515 0.63435,-0.1471 -0.0432,-0.9116 -0.49441,-0.8029 -0.4873,-0.1619 -0.90932,-0.9631 -0.50742,-1.3911 0.2757,-0.4964 -0.29544,-1.2796 -0.84681,-1.2306 -0.43331,0.1141 -0.81069,-0.2135 -1.23616,0.042 -0.56774,-0.093 -1.01,0.306 -1.56653,0.3283 -0.47681,-0.1829 -1.15941,-1.0115 -0.43194,-1.3335 0.28773,-0.2463 0.50887,-0.5173 0.92033,-0.4214 0.43769,-0.4331 1.03909,-0.3126 1.56523,-0.1295 0.58208,0.1979 1.11173,0.5345 1.70702,0.6864 -0.0784,0.496 0.5833,0.6212 0.94207,0.2698 0.42616,0.14 1.27038,0 0.82961,-0.6073 -0.21251,-0.4839 -0.29415,-1.0089 -0.15096,-1.5234 0.23405,-0.5523 0.31107,-1.1645 0.50384,-1.7352 0.17359,-0.4392 0.44415,-0.8699 0.8236,-1.1383 0.20488,-0.5487 0.82287,-0.7019 1.05649,-1.2306 0.28304,-0.5197 0.98382,-0.4493 1.4257,-0.2401 0.54269,-0.1867 1.13643,0.3029 1.58345,-0.2188 0.61083,0.088 1.09389,-0.3084 1.29199,-0.8711 0.62067,-0.2712 0.53999,-1.2177 1.23499,-1.3072 0.44096,-0.1657 0.45227,-0.5482 0.40719,-0.9101 0.0971,-0.5171 1.19458,-0.2033 0.96837,-0.955 -0.0768,-0.5382 0.35827,-0.8717 0.81787,-0.9245 -0.0992,-0.4256 0.20822,-0.4576 0.49305,-0.5307 0.27434,-0.4277 0.19923,-0.8967 0.66259,-1.2096 0.11197,-0.451 -0.0931,-0.9236 -0.0326,-1.3082 -0.48523,-0.1754 0.1984,-0.2685 -0.0305,-0.5777 0.3517,-0.1584 0.88479,-0.1491 0.95316,-0.6674 0.0679,-0.5179 0.0933,-1.0162 0.45253,-1.4424 -0.0562,-0.3801 0.16695,-0.7528 0.37684,-0.9493 -0.38801,-0.3399 0.84181,-0.3513 0.2144,-0.7258 -0.24525,-0.3234 -0.20401,-0.8406 0.1957,-0.9524 0.24307,-0.4507 0.3712,-1.0393 0.84186,-1.3163 0.39967,-0.351 0.56838,-0.9089 1.15405,-0.9939 0.17058,-0.4153 0.66374,-0.6455 0.43932,-1.1477 0.0427,-0.2802 1.00172,-0.099 0.58356,-0.4851 -0.61463,-0.094 -0.0622,-0.8882 0.0131,-1.2773 0.11789,-0.6202 0.34963,-1.3591 1.07681,-1.4732 0.66742,0.1152 0.34937,-0.697 0.90251,-0.8432 0.26125,-0.256 0.30512,-0.6503 0.76056,-0.5311 0.64456,-0.055 -0.0963,-0.8158 0.4527,-0.8841 0.33467,0.4031 0.5568,-0.4387 0.74368,-0.6847 0.50957,-0.4154 -0.276,-1.2606 0.51111,-1.4705 0.38928,-0.3213 0.34996,-0.7421 0.0489,-1.0652 -0.16362,-0.3536 -0.0155,-0.6798 0.0632,-0.9683 -0.34419,0.1638 -0.50344,-0.2998 -0.17167,-0.3926 0.25847,0.2222 0.58382,-0.565 0.69636,0.032 0.42643,-0.2767 0.74992,-0.6699 0.80066,-1.1986 -0.18055,-0.364 0.56373,-0.7503 -0.0288,-1.0162 -0.63217,-0.1627 -0.58372,-1.0454 -0.75235,-1.5638 0.10674,-0.6683 0.63813,-1.172 0.5793,-1.868 -0.0744,-0.3236 -0.823,-0.6444 -0.13214,-0.8767 0.5703,0.1429 1.24525,-0.8046 0.70068,-1.1274 -0.28308,-0.1008 -0.22137,-0.5507 0.0457,-0.2373 0.62393,-0.02 -0.26436,-0.5839 0.092,-0.9554 0.0167,-0.5991 1.09089,0 0.77133,-0.7122 -0.54207,0.045 -0.9705,-0.2823 -1.17114,-0.7699 0.12202,-0.4488 -0.38741,-0.885 -0.2299,-1.2484 0.71994,-0.1114 0.3848,-0.9008 0.21291,-1.3379 -0.17941,-0.6323 -0.32237,-1.3311 -0.95062,-1.6024 -0.24375,-0.5719 0.259,-1.3046 0.86633,-1.2981 0.61132,-0.4449 -0.59337,-0.9122 -0.10994,-1.4441 0.30597,-0.4597 0.55768,-1.0166 0.19594,-1.5104 0.26878,-0.5094 -0.21029,-0.8972 -0.17613,-1.3536 -0.11565,-0.3582 -0.57502,0 -0.8391,-0.2286 -0.32909,0.2063 -0.3865,1.164 -0.87836,0.6062 -0.6562,-0.1992 -0.37038,-0.8894 0.10759,-1.1337 0.0283,-0.3491 -0.51974,0.1824 -0.54462,-0.3189 -0.43457,-0.2652 -0.14599,-0.5966 0.20049,-0.7069 0.24176,-0.4412 0.27302,-0.965 0.36126,-1.4458 0.40465,-0.4999 0.24834,-1.1755 0.70778,-1.6634 -0.0181,-0.3132 0.002,-0.8249 0.38848,-0.4432 0.36044,-0.1283 0.92216,0.02 0.78912,-0.568 0.21712,-0.3032 0.60473,-0.4599 0.62246,-0.8859 0.41675,-0.3274 1.09058,-0.5954 0.85157,-1.264 0.14945,-0.2015 0.35234,-0.3468 0.55291,-0.495 0.10029,-0.074 0.27173,-0.214 0.3639,-0.2969 z"/>
        
    </g>
</svg>