<svg xmlns="http://www.w3.org/2000/svg" width="2000" height="1800">
    <g fill="#8ad" stroke="#fff" stroke-width=".5">

<path  d="m012.006,067.3761 c -4.5798,21.60319 -41.3089,27.15694 -35.0197,46.2596 0.182,15.8127 37.6091,-2.9385 46.0386,19.5044 -1.5005,16.0767 -25.3359,50.9853 0.3722,22.6213 24.493,18.6892 21.105,-23.424 41.6179,-24.8284 34.7788,-13.3719 1.4024,-16.4264 -8.5185,-32.00463 -15.699,-7.34357 -19.62,-23.98575 -37.8869,-27.85266 -2.5026,-0.95353 -4.6729,-2.77997 -6.6036,-3.69961 z m 89.2633,154.828 c -22.0305,1.9972 28.4687,30.9605 18.5533,17.204 -5.3118,-5.9492 -7.9941,-19.3737 -18.5533,-17.204 z m 285.9306,8.688 c -34.7406,18.0507 28.6563,27.8214 23.7499,11.5835 -4.2078,-6.3283 -16.8257,-4.6177 -23.7499,-11.5835 z m -232.85,8.524 c -15.4002,-2.0095 -32.1173,18.872 -6.4376,14.4655 5.0431,-0.031 17.1066,-14.1737 6.4376,-14.4655 z m 296.7585,61.544 c -6.1759,16.6168 33.105,1.6518 0,0 z m 613.7807,265.868 c -15.7402,21.4896 19.9252,1.9082 0,0 z m -89.2903,39.232 c -1.1802,15.6059 31.8486,4.5681 0,0 z m 155.5796,3.844 c -21.568,28.0339 -42.7005,59.2037 -72.4814,82.6585 -20.3683,17.9171 -18.4685,-27.9539 -30.1337,15.5403 -32.1413,-2.9753 -41.5765,12.5554 -5.2696,28.6844 15.671,14.9251 60.5377,22.7834 60.0871,58.8264 30.633,14.2103 7.896,62.0489 45.3498,67.4836 36.3838,38.6813 -20.7163,-58.4168 23.2609,-68.8221 60.5638,11.3951 3.7814,-72.0103 43.1456,-64.5262 8.7971,-27.4274 -28.4647,-41.885 -22.8794,-71.1306 -12.1468,-15.8382 -26.9738,-37.71 -41.0793,-48.7143 z m -144.7749,47.772 c -23.362,36.0497 25.9975,7.8754 0,0 z m -72.5014,154.752 c -24.3383,12.563 -21.773,52.9744 -0.8905,59.7727 25.3213,-3.4456 36.4915,-35.8034 8.119,-56.0807 l -2.916,-2.547 -4.3159,-1.145 0,0 z m 75.874,97.14 c -1.4717,18.103 17.7933,8.3303 0,0 l 0,0 z m -80.824,42.932 c -19.9275,17.0051 37.7081,23.205 10.8578,7.8189 -5.909,0.664 -5.8663,-9.3847 -10.8578,-7.8189 z m 40.9834,11.096 c -4.7484,16.9187 48.5784,6.5426 19.9269,1.2499 -7.0223,0.505 -10.9459,-10.5614 -19.9269,-1.2499 z m -55.6848,249.38 c -19.4884,24.3629 24.0263,50.0975 18.1658,11.7476 -0.75,-8.1661 -9.0203,-16.0675 -18.1658,-11.7476 z m -383.3767,98.02 c -17.6167,11.9616 -12.4065,37.9476 7.5887,17.2043 10.9567,-4.1053 -1.3793,-13.5639 -7.5887,-17.2043 z m 242.2168,65.2839 c -5.0737,20.8375 43.8436,19.1379 15.9485,3.2554 -5.8223,-0.8646 -7.5067,-10.1072 -15.9485,-3.2554 z m -203.8359,303.3921 c -19.8343,-0.081 -43.4004,12.362 -47.522,-16.0864 -6.4562,-38.9397 -36.9928,-13.5055 -54.1441,-1.3744 -24.9681,-9.3985 7.5798,-56.0121 -24.8642,-56.1352 -30.5825,-23.3292 -50.3583,20.2124 -50.5137,45.5528 -25.0071,-3.1487 -19.3081,-39.7328 -11.6803,-59.5024 -19.3792,-29.2302 20.1974,-46.0165 7.7151,-73.2024 -9.4807,-34.1311 -31.0412,-2.3639 -45.1119,5.9754 -28.7567,24.6673 -42.9596,-8.5902 -69.5367,-13.457 -41.7243,16.0568 9.6395,-26.6977 25.2388,-29.7356 27.8561,-4.6056 53.1667,-35.2466 53.5972,-60.5571 7.0626,-22.9197 22.4561,-67.9228 -20.2326,-68.2104 -27.6032,21.7336 -44.057,18.5405 -37.5238,-6.6663 -24.1252,-10.4409 -28.0955,-30.4167 -37.8425,-52.4468 17.0388,-37.5998 -55.068,-43.0336 -26.823,-64.0828 39.6341,-1.1622 88.2749,-15.7877 122.4513,1.8689 16.5366,20.1517 11.0343,46.3553 7.2217,72.0773 7.2228,18.8961 14.3903,41.8121 36.4725,36.3142 19.3015,4.4558 31.8534,23.6151 59.9631,22.5596 8.3289,34.5263 51.5005,33.8127 77.8957,23.407 35.0627,-9.115 17.1106,-46.8735 25.7793,-73.3191 -12.5837,-26.8751 -29.2477,-60.1303 -44.4588,-79.7423 4.4459,-34.4181 -22.1682,-42.2517 -38.0477,-60.8643 -21.0739,-11.785 -42.4951,-22.4259 -53.1804,-45.6225 -15.8245,-19.1386 -13.2036,-50.382 -41.8458,-52.7447 -31.7945,7.8963 -41.9178,-36.6449 -68.352,-49.3214 29.3633,5.7622 35.256,-48.3085 59.6611,-33.8691 37.4796,5.9455 69.1867,-33.636 11.6099,-33.4354 -36.9727,3.1093 -37.0254,-24.6303 -23.1123,-53.0887 -7.4376,-21.5593 26.6797,-35 3.6498,-59.1883 -29.4213,-6.5845 -29.3517,-77.739 10.7401,-70.3493 14.4607,-20.295 -32.4426,-2.1769 -42.7688,-17.3267 6.5211,-17.5392 -33.2898,-38.0369 2.9318,-40.7953 20.767,-10.3669 18.4103,-39.5029 19.8031,-54.2691 -5.4737,-24.5386 -15.7823,-15.133 -28.5739,2.7528 -18.5465,6.8843 -29.0225,-23.4343 -53.3726,-26.1512 -23.0974,20.237 -40.5457,1.224 -53.1358,-16.1154 -19.409,-10.5987 -28.0658,-31.7044 -46.6439,-41.669 -13.9268,-8.0781 -34.1458,41.7084 -41.8737,8.8093 -11.8079,-9.8786 -53.68,-26.5443 -25.7479,-52.9535 16.523,-17.6524 58.0694,-29.4261 55.1389,-66.2373 -11.8981,-33.9869 -66.4831,1.5813 -75.4883,-23.4055 25.444,-2.3825 36.9035,-33.3556 44.143,-50.1712 8.3771,-14.4883 -11.2864,-52.3221 20.9517,-44.6952 19.9277,8.4489 63.0147,4.3303 57.547,-22.5505 20.6899,-5.6071 32.5032,-47.6154 -8.5946,-56.9768 12.4505,-14.2652 33.9569,7.9017 50.4041,3.2931 38.8692,-4.4066 3.9411,-49.5755 33.9441,-59.6374 8.3507,-22.2918 46.8322,-31.1142 36.3561,-53.8374 29.1419,27.5595 39.963,-51.9251 60.4654,-20.8684 -29.1255,12.2295 2.8641,51.8037 -5.1698,46.1786 -27.1917,-0.7821 -52.2833,12.9964 -74.0098,27.5636 14.2357,14.6871 45.381,21.728 62.6303,30.6354 18.7764,-1.0024 -25.1089,43.1103 21.5575,29.2828 23.7201,18.6855 11.6023,26.9859 24.8274,54.4613 23.8193,11.0065 54.5267,24.641 72.6781,27.577 1.1428,11.8589 -49.3664,16.5792 -21.1361,47.1125 25.991,8.6271 13.9066,40.3118 32.9185,52.5334 2.5812,15.7616 35.8967,21.453 51.7676,10.3495 21.8697,-1.4813 17.2615,41.7957 46.4791,35.2056 8.1935,-22.3929 48.3448,-32.7241 33.2571,-54.5716 -1.3974,-40.6039 29.1428,16.2659 46.7159,25.4042 31.4075,0.9817 60.0799,-7.7969 89.2317,14.1166 26.6191,-15.2143 44.2881,7.3479 70.8436,14.9768 29.3906,-28.9269 -14.1374,37.6778 23.875,31.6885 21.7695,13.7766 43.9819,7.559 58.1825,32.763 28.8175,9.5968 30.8178,33.2893 42.6123,58.2006 -22.7087,9.6744 -11.2788,49.8066 -35.5306,53.4155 -5.319,25.7851 39.7435,20.98 26.7151,52.4989 -20.2787,0.3434 -41.4906,-0.5731 -60.1789,16.0863 -27.8395,11.0003 -31.206,33.5163 -35.2669,60.3215 -23.6546,10.2017 -37.0548,31.1854 -48.0736,55.3276 4.1555,31.0982 -37.7384,21.2974 -44.9811,50.6559 4.6758,19.8018 24.4808,18.605 -4.8358,42.6902 -11.681,25.8307 15.6153,37.2658 9.0781,59.7632 7.1003,27.2825 28.2323,12.5139 33.7364,42.4451 30.166,14.7599 43.6954,9.968 35.6903,49.163 13.3655,11.1386 68.0206,-11.6549 35.7539,21.8785 -33.5517,13.9903 11.8812,49.2513 -24.5299,50.4038 -12.9657,23.5489 -40.115,33.3123 -62.8028,38.0784 -14.0254,17.5789 -13.4084,46.2038 -2.9617,63.7878 -12.7872,25.4945 32.047,38.1561 40.1943,51.4715 -22.4527,-0.4393 -48.3494,-8.3176 -67.041,-18.4491 -26.7479,-11.285 -43.4994,10.6837 -34.7354,34.4753 -23.3552,-3.4582 -38.9357,19.5629 -37.7118,40.2457 13.7815,6.2546 30.0058,58.6339 4.568,40.533 -37.7905,-20.6093 -46.9053,38.4885 -14.048,48.3399 15.1774,23.7053 11.9786,53.8813 44.468,65.7619 31.2678,-1.9451 41.9699,38.4241 75.5021,17.7126 25.8612,7.5556 -12.1443,35.7865 -21.025,47.0702 -15.3192,19.7126 -19.934,18.4049 -42.9289,7.565 -21.4823,-21.3236 -43.6808,14.4732 -35.4476,32.3627 -2.892,33.4554 -34.735,-12.8482 -22.758,-36.5242 -10.6764,-26.7606 -31.6238,-55.6734 -57.3813,-27.1213 -30.9046,10.961 6.711,49.3242 -23.1272,64.5694 -5.4511,11.0695 -10.6435,23.783 -20.2911,30.0453 z m -49.4014,-0.028 c 7.9184,24.0591 -21.4503,36.8659 -9.5466,8.7111 3.1103,-1.9725 6.3494,-18.9618 9.5466,-8.7111 z"/>
</g>
</svg>