<svg xmlns="http://www.w3.org/2000/svg" width="300" height="300">
<g fill="#8ad" stroke="#fff" stroke-width=".5">
    <path d="m 220.12551,079.28609 c 0.11998,-0.4455 0.67398,-0.39614 1.03347,-0.35443 0.55454,0.0366 1.11027,3.3e-4 1.6653,0.0127 0.1846,0.45732 0.74715,0.45639 1.11344,0.68758 0.54268,0.31885 1.24804,0.55518 1.47793,1.20289 0.11907,0.39233 0.41556,0.79998 0.85597,0.83432 0.38432,0.1946 0.19076,0.7084 -0.0203,0.9647 -0.21743,0.38638 0.0312,0.8166 -0.024,1.22092 -0.16371,0.48315 -0.75486,0.34772 -1.14118,0.3086 -0.3983,-0.003 -0.79992,0.0559 -1.1955,-0.0142 -0.15818,-0.41286 -0.71976,-0.57057 -0.74142,-1.05157 -0.0583,-0.49832 -0.56891,-0.72554 -0.96658,-0.91956 -0.37212,-0.27425 -0.96904,-0.05 -1.25053,-0.47761 -0.23948,-0.37801 -0.007,-0.94022 -0.40137,-1.23841 -0.26118,-0.26974 -0.64634,-0.0756 -0.90419,0.0956 -0.23545,0.22815 -0.67345,0.21513 -0.78425,-0.13598 -0.13261,-0.29729 0.0923,-0.5686 0.32647,-0.7226 0.25127,-0.24162 0.58291,-0.5139 0.95676,-0.41281 z M 89.95649,099.96585 c -1.15166,0.78662 1.67352,0.57067 0,0 z M 248.5667,147.0796 c -2.26972,0.69569 -3.99079,2.05958 -0.32212,1.52121 0.0404,-0.60528 1.4332,-0.84197 0.32212,-1.52121 z M 80.13399,096.61391 c -0.0541,1.77407 2.60655,0.684 0,0 z m 27.53534,-1.76138 c -0.18836,1.03112 -3.03385,5.49502 -0.74267,2.93385 1.39018,0.32325 6.16515,-0.22304 2.69278,-2.26346 -0.93071,0.11902 -1.01749,-0.62531 -1.95011,-0.67039 z m -25.12004,2.6842 c 1.3275,1.91481 -0.16751,0.26637 0,0 z m 163.84351,51.6382 c -1.65938,1.65561 -4.38754,-0.70322 -5.39422,1.13182 1.38088,1.29964 3.53269,1.17873 5.5553,0.66076 2.29187,-0.16651 1.00793,-1.0848 -0.16108,-1.79258 z M 126.26784,095.77522 c -4.30157,-0.36826 2.86989,2.20789 0,0 z m 149.35107,0.33382 c -1.79454,1.20177 -3.39329,1.5851 -5.23238,3.18177 -0.9787,0.6439 -1.74088,0.12523 -3.62484,1.49197 -1.78161,0.7305 -2.03471,1.46536 -3.68073,2.20094 -1.28228,0.83451 -2.82805,2.31505 -4.29002,2.47284 -1.88212,-1.21934 -2.22096,1.59235 -3.33231,1.97037 -1.56031,0.47064 -3.13714,-0.61706 -3.67713,1.59481 -1.75186,0.9735 -2.01673,4.66632 -0.55856,5.24854 0.9982,-2.30255 4.17629,-1.66144 5.39438,-2.85944 1.26607,-1.39074 4.3648,-1.00351 6.56127,-1.72025 3.99775,-1.27441 6.14119,-5.70875 10.4009,-6.49197 1.6056,-0.35282 1.70533,0.0275 3.40737,-1.15607 2.16962,-0.0655 1.79713,-2.56098 0.56363,-2.91496 -0.45116,-1.0885 -0.23134,-2.74635 -1.93242,-3.01819 l 8.4e-4,-3.6e-4 z M 49.780654,150.51571 c -2.379243,1.73077 3.035466,1.2343 0,0 z m 2.254331,-60.60836 c -0.01632,4.30337 3.41118,0.93686 0,0 z m 69.240945,45.77045 c -1.85898,2.9677 5.32447,1.59123 1.0826,1.17519 -0.49972,0.0312 -0.42373,-1.2249 -1.0826,-1.17519 z m -19.64503,114.5153 c -0.78393,2.3434 4.45003,2.6462 0,0 z m 3.22043,-11.904 c -1.46409,2.5224 4.77642,2.5348 1.96841,0.084 -0.47426,0.8015 -1.40822,0.4012 -1.96841,-0.084 z m 2.49599,10.9813 c -2.89824,2.1061 -1.46211,2.6376 1.28816,3.1646 2.54384,-0.023 -0.53017,-2.6526 -1.28816,-3.1646 z m 5.07221,-12.4061 c -0.52013,3.8429 -1.18874,2.5346 -2.33491,1.1508 -1.78105,1.2623 0.13898,5.127 -2.57672,4.5895 -2.4605,-0.1632 -3.33169,1.0663 -4.58931,2.6287 1.8225,0.2624 4.73366,1.75 5.68034,-0.3219 2.10987,0.1982 3.56251,1.2291 2.53204,-1.1753 -0.14519,-1.7829 5.27742,-3.528 3.22048,-3.7411 -2.02996,1.761 0.51614,-2.6373 -1.04673,-2.8811 -0.65377,0.6503 -0.40308,-0.4712 -0.88519,-0.2496 z m -18.03484,3.938 c -0.89651,3.1648 -3.45923,2.3609 -3.62336,5.4283 -1.60875,2.4714 2.07559,2.469 3.47059,3.626 2.76962,1.19 3.50699,-2.8954 4.89413,-4.3019 1.1842,2.9897 2.59194,-2.3602 -1.21629,-1.148 1.50763,-3.1182 -1.92523,-1.7656 -3.12297,-3.1836 l 0,-0.3775 -0.40257,-0.043 4.7e-4,-10e-5 z m 99.11119,-38.9796 c -1.35999,1.4176 -2.18101,3.7405 -3.46211,4.4304 0.98243,3.6945 -5.12039,1.3243 -3.38132,4.9574 0.0356,2.8784 -0.27941,6.1721 -3.62346,7.0431 -3.32238,0.8644 -0.95411,4.1008 -1.20752,6.5887 0.1571,2.5844 2.28508,5.3385 1.04676,7.4514 1.68652,1.744 2.38126,4.4159 4.57119,5.911 2.56912,-0.1462 4.41823,1.9918 7.02268,2.2946 2.43957,0.9477 4.05887,2.1599 6.82559,1.1411 2.78006,-1.3773 6.66916,-0.7941 9.19646,-3.2177 2.16783,-1.4723 3.97378,-3.0427 5.55537,-5.0604 2.78701,-0.7801 4.3654,-2.3462 5.153,-5.0507 1.15241,-3.5669 1.17407,-6.918 -0.67533,-10.2267 -1.0874,-2.155 -4.10278,-2.539 -4.88008,-4.3496 -1.70617,-1.8835 -2.89078,-1.8311 -3.38139,-4.5583 -0.19842,-1.3736 -0.95284,-2.853 -2.76861,-3.8348 -1.13935,-0.027 -2.21072,-1.3763 -3.17121,-1.5089 -2.23696,-0.15 -3.50695,-2.9557 -6.1815,-3.1863 -1.27599,-1.89475 -1.61965,0.158 -4.21373,-0.1683 -1.0574,-0.021 -1.63681,0.511 -2.42479,1.344 z m -74.64629,-85.11648 c 0.69482,0.98726 -0.10592,0.1431 0,0 z m -1.21734,1.68281 c 0.5996,0.14109 -0.0382,-1.10451 0,0 z m -13.10292,83.43367 c -0.99062,2.0979 -1.92081,2.1109 -3.60497,3.3524 -0.63002,2.4232 -1.17859,4.6745 -2.36631,5.4497 -2.25921,-0.6913 -1.77488,1.7347 -3.49338,1.843 -1.72202,-0.8972 -3.86703,-1.1773 -5.18877,-0.4612 -2.0634,2.3753 -2.12172,0.9144 -4.55322,1.2158 -1.64964,1.5099 -2.50174,4.0691 -5.18893,3.9191 -2.036578,0.1306 -3.943346,1.6274 -5.797019,0.3364 -1.808747,-0.402 -0.61466,-4.404 -1.288158,-6.2453 -0.04951,-4.0442 -4.560131,-4.5583 -6.422992,-7.735 -1.562972,-2.5725 -5.456283,-4.31134 -4.526886,-8.10745 -0.426986,-3.14897 -1.891755,-5.47592 -4.025718,-7.31663 -1.829503,-2.2073 -3.48677,-5.08412 -2.093311,-8.32889 -0.426501,-1.84023 0.719728,-5.02394 -0.302011,-4.82231 -1.590416,-0.95715 -0.622948,-2.44451 -0.825238,-3.782 -0.662276,-0.80397 -0.27949,-3.37973 -0.402691,-5.15426 -0.597585,-2.49426 2.632325,-3.88593 -0.402682,-5.97366 -3.094879,0.015 0.499536,-2.45566 -6.2e-5,-4.12836 -0.441167,-2.38435 0.243094,-4.98078 -0.885812,-6.62467 -3.052127,0.74841 -0.703432,-3.26729 -1.690813,-4.59925 -2.510222,-2.7365 1.065692,-4.70295 0.402638,-7.72268 -0.978123,-1.86001 -0.486766,-4.22577 -2.638989,-5.6182 -1.951794,-1.47824 -3.388449,-3.62409 -3.496834,-5.90525 -1.09111,-1.71423 -0.367605,-4.30763 -1.352038,-5.39077 0.780504,-1.12307 2.30543,-3.23928 1.610248,-5.63713 -0.604997,-2.75469 0.829918,-4.3146 2.464672,-5.44972 -3.684068,-1.08333 -0.977963,-3.46934 1.400041,-3.96939 1.402543,-2.2219 -1.057065,-5.01934 2.638822,-5.58683 1.141966,-1.91381 0.79018,-3.68363 3.802136,-3.6045 1.605306,-2.47254 4.444098,0.38081 5.456813,-1.50891 0.578795,-2.01993 2.193684,-1.61357 3.685615,-0.41799 2.479448,-0.0904 3.597243,1.66778 4.625251,3.15244 2.051049,0.30431 -0.206157,2.87303 3.054732,3.13325 2.45051,0.55699 4.381678,0.21064 6.266808,2.1795 1.426648,3.40184 1.995528,-1.77112 3.641068,1.28795 1.11974,1.43854 3.03668,1.55403 3.46211,1.56143 2.47484,0.46611 4.45216,-0.91086 6.52153,1.2907 -2.69417,2.40245 1.86283,2.00894 3.05938,3.52012 1.81048,1.3385 3.93331,0.57884 6.40024,-0.0312 4.93847,0.42681 -1.46892,2.3672 -0.84483,4.69542 -1.20598,3.24193 -2.94671,1.87658 -2.25453,-0.81706 1.10568,0.9785 -4.35823,3.8955 -0.79171,4.67116 4.23559,-2.29994 1.91623,1.00094 2.8487,2.68419 2.53639,0.0406 2.84432,-4.33793 4.35265,-4.19338 0.2732,1.66594 -2.32513,4.63712 0.99742,4.27726 1.73389,0.42446 2.71594,-1.84227 3.61848,-2.93383 -0.027,-2.72933 1.19194,-2.44757 2.7422,-1.50908 1.75801,-2.00562 2.99417,-0.54191 4.31532,-1.1059 3.23867,2.91031 -2.08376,0.943 -0.74896,2.90145 0.84436,1.066 3.44233,-2.60035 3.24096,2.69626 1.28214,2.68595 -2.2828,4.33839 -0.52786,6.53028 -0.10616,2.47025 0.063,3.56788 2.25451,4.15924 -1.3275,2.1833 -1.90826,2.93004 -1.87813,3.00845 -2.93723,0.17564 -0.86355,-2.84647 -2.98387,-3.93808 -1.25904,1.98071 -2.77561,-1.21447 -5.21519,-0.0843 -2.5323,-1.99866 -2.30963,3.19839 -3.44884,4.58966 0.54888,1.76078 0.30534,3.33129 1.36873,5.02918 -2.4963,1.78848 -1.80019,5.06723 -0.40254,6.89373 4.02131,0.61926 -0.85179,3.17769 0.32224,5.43821 0.7915,2.46607 3.87525,3.27696 2.09349,5.85783 0.21616,2.58882 5.71285,1.78234 4.35241,4.38035 -2.18415,0.98812 -3.49499,4.71248 -0.84584,6.12025 1.19859,1.38941 1.9432,4.35464 1.4046,6.77873 0.67782,3.13402 -1.27147,6.7982 1.44894,9.36897 -0.44427,1.37492 -3.03488,3.27372 -2.65685,5.71898 -1.05917,2.19485 -1.80554,4.21435 -4.4908,5.21176 -1.32625,2.13422 -2.91772,2.67843 -4.63862,4.35873 -0.70334,0.1986 -0.37915,1.0304 -1.57735,1.0912 z m 13.52617,-86.93479 c 1.40536,-0.42052 3.60401,-1.53519 2.01268,-3.67414 0.78656,-2.06919 2.02612,0.57716 2.97908,-3.20075 1.14966,-1.64139 0.67656,-3.08459 0.88555,-5.11331 -0.43537,-2.24255 1.8175,-3.20269 2.73729,-4.39002 0.0347,-2.33486 4.4777,1.26668 4.91111,-0.63918 0.94951,-0.96216 -1.61636,-2.20663 2.05263,-2.17967 2.59787,-0.4278 0.59563,-1.63462 0.12606,-3.52009 0.3001,-0.7648 1.98123,-3.0924 0.88123,-4.76752 -0.96329,-2.34066 -2.70056,-2.84996 -3.65448,-2.19144 -1.96931,-2.04759 -5.99428,-1.82228 -5.44358,-5.53119 -1.15321,-2.52618 -1.65538,-4.35609 -1.83418,-6.95886 -0.65952,-2.48695 -2.82525,-2.8347 -0.82304,-5.08245 0.333,-2.78561 1.54423,-4.88959 4.11965,-5.81466 0.44809,-3.49573 5.21603,-1.36402 5.05894,-4.72452 1.14465,-2.17553 3.44639,-2.42672 5.63586,-3.72175 1.9341,-1.83425 2.3515,-3.76079 3.87814,-5.63985 1.28595,0.47273 3.54392,-2.53792 2.17862,0.83868 1.62106,0.80341 0.39432,3.15629 3.4525,2.17951 1.38213,1.04772 4.14636,-0.67526 3.51649,3.43861 1.51013,-1.14138 3.24847,2.01103 4.11744,2.59323 1.07759,1.83317 3.00145,1.96826 4.07025,3.4211 1.87143,0.82346 1.04039,3.9755 1.92053,5.38485 0.17489,1.85455 2.4258,2.7237 1.82557,5.65876 1.30763,1.19057 0.471,4.68759 2.1e-4,5.57448 -0.37487,2.1111 -1.68548,3.06214 -1.20776,5.53409 -1.0442,2.07377 0.71432,4.56506 1.04679,6.68493 1.82432,2.55591 3.41899,5.65579 5.87719,8.06884 1.16043,1.44548 4.19472,3.71971 4.32968,2.84982 2.37755,1.24603 4.89592,0.12003 6.57084,1.59312 0.81746,0.6727 4.58275,-1.42484 6.93264,0.42055 2.31806,-1.53722 4.03517,2.35295 5.43513,1.02593 1.4716,1.1685 3.69118,1.52906 5.618,3.08048 1.27363,1.1721 4.57692,0.8399 4.06158,3.35457 2.32363,-0.36506 2.84873,2.63107 3.76625,3.69822 2.49352,3.01333 2.99296,7.77728 7.55053,8.53964 2.99471,0.40966 4.8009,3.70261 8.06931,3.40754 0.70671,-0.81324 3.67654,-0.19907 5.24663,1.28801 1.31,1.18201 3.42937,0.35861 2.40212,2.00875 -1.20979,1.15033 -3.4409,-1.9205 -5.25329,-1.71775 -2.36832,0.0519 -5.32208,-0.0933 -7.78985,-1.01429 -2.17325,-0.0832 -5.17404,-0.2417 -7.72824,-0.7859 -1.9847,-0.11441 -3.49702,-0.36697 -5.45318,1.00692 -2.22668,1.02182 -5.02417,-0.36269 -6.62003,1.92706 -2.97855,0.58201 -6.21334,0.7991 -9.34423,1.67656 -1.89747,-2.19364 -1.435,0.57076 -4.10881,-0.51449 -1.52486,0.19315 -2.50486,0.64007 -4.55058,1.51893 -2.26472,0.93127 -5.84109,-0.11266 -6.89295,2.76811 -1.42975,2.95313 -5.17872,-0.43407 -6.02519,2.55415 -1.34367,-0.57378 -3.27401,1.20348 -4.88854,2.22244 -1.90826,-0.35691 -3.1726,1.02337 -3.80684,0.98299 -0.80512,-0.39134 -4.01327,-0.9238 -5.39431,0.77843 -0.22555,2.13282 -3.85267,1.48298 -4.66976,1.61485 -1.08429,1.31484 -2.90809,1.06716 -4.58922,7e-5 -2.76541,-1.16882 -6.12004,-1.427 -9.42009,-1.78307 0.33128,-2.34058 -2.06488,-3.98783 -4.02573,-1.94859 -1.3829,-0.56486 -4.06373,-1.45216 -3.05947,-2.8811 -0.18198,0.76896 -0.4032,-4.13565 -1.85172,-3.71032 -0.95708,-1.72139 -1.5285,-3.46035 -3.42448,-5.05957 1.97862,-1.72564 0.38701,-4.81757 0.22953,-7.04714 1.24621,-3.10553 -1.75516,-2.38724 -1.65846,-4.00795 l 0.0228,-0.076 -8.3e-4,9.4e-4 z"/>
</g>
</svg>
