<svg xmlns="http://www.w3.org/2000/svg" width="300" height="300">
    <g fill="#8ad" stroke="#fff" stroke-width=".5">

<path d="m 0052.3241,0081.8596 c -2.6419,3.8736 -7.0709,6.8966 -11.6324,7.6844 -3.5699,-2.1341 -4.8684,1.034 -7.2039,2.7392 -0.15,2.7557 -5.5165,3.5885 -2.5864,7.4715 3.3153,3.6986 0.2588,6.4204 0.7379,11.5744 0.6951,3.026 2.9723,5.5393 5.0176,7.8564 3.4687,2.68 6.9809,5.5131 7.9815,8.7589 1.6481,2.7931 3.9282,4.588 5.3555,6.5649 0.8795,2.9413 -1.3648,6.8193 2.7109,7.5774 3.7657,1.4455 2.8733,5.5715 3.2033,8.7129 0.7778,4.2677 -0.9153,8.3573 -2.1588,11.7639 2.5249,2.1743 3.0906,6.1745 4.2062,9.4252 1.1364,3.7246 6.0259,2.8023 6.9835,5.7505 3.0774,1.8307 4.1109,4.2942 7.1481,6.3233 2.5328,3.2613 -1.4105,7.7506 4.0964,9.0023 7.1313,1.0419 14.4383,2.017 20.6847,5.929 3.036,3.0342 4.5211,7.1122 7.7615,9.77 3.4717,3.8662 10.1828,1.2599 13.0874,4.5984 -0.2233,4.0553 5.6515,4.0501 7.561,5.4588 2.8515,-1.8326 1.9331,4.0656 5.5653,1.8735 4.7449,-0.9489 8.4672,2.9853 12.8017,4.2051 3.7317,0.1453 6.3496,1.9695 9.1333,3.5684 0.029,3.106 4.3059,-0.9198 6.5746,1.4823 4.4009,0.9823 7.5907,-2.0552 11.0377,1.8018 2.075,2.1547 4.8818,4.2357 8.2956,2.9178 4.324,-5.0722 8.8569,2.5587 11.9606,0.2207 3.4362,-2.7715 9.0548,0.1101 10.7927,-4.4999 5.7821,-0.2722 11.9954,1.8393 17.0805,-1.866 3.9933,-0.7588 8.443,-0.5585 11.3891,-2.7371 4.4957,1.7573 8.7652,-0.5122 11.8159,-3.7474 3.245,-1.6989 5.9397,-5.2048 7.0043,-8.9099 -2.4159,-5.0996 -1.4018,-10.5381 -1.1263,-15.8927 -1.7467,-4.6149 -0.8606,-9.8245 -1.0253,-14.6004 1.4887,-4.159 1.2077,-9.1391 3.1754,-13.1752 0.3039,-4.3418 7.5646,-6.9722 4.7096,-11.5805 0.022,-3.6111 7.162,-2.1726 3.2781,-8.0959 2.571,-4.5827 -2.823,-6.4859 -2.339,-10.9931 -2.7569,-2.3438 -6.5706,-1.8872 -8.7212,-5.2273 -2.0795,-4.5166 -7.3502,-0.2771 -9.114,-4.5565 -1.3027,-5.2519 -6.666,-6.8176 -8.1915,-11.7752 -2.0413,-2.8337 -5.3257,-4.846 -7.1393,-8.2192 -4.0592,-2.1302 -0.2431,-8.0768 -1.9747,-8.411 -2.7751,0.1284 -2.3953,-5.8101 -5.7347,-6.7767 -5.7623,-1.5298 -5.3118,-8.6679 -5.7337,-14.0469 -0.2166,-4.8551 0.5403,-10.2334 -3.2585,-14.0685 -1.9445,-5.5497 -7.1547,-8.7901 -10.2185,-13.4933 -4.6055,-3.2376 -10.1846,-6.5723 -15.7083,-5.5234 -4.2532,-1.3424 -7.3939,-5.6887 -11.9816,-6.0023 -4.0193,1.9215 -8.1023,-3.4431 -12.5531,-1.4255 -4.3685,2.5346 -9.6181,-1.9384 -14.3562,-2.4168 -5.0642,-3.4696 -10.2432,1.1022 -15.6887,-0.547 -4.3776,0.2963 -6.6231,-7.0914 -10.8126,-4.0631 -5.2363,1.1266 -11.397,-0.3272 -16.6298,2.6055 -3.014,1.9564 -6.38,3.7991 -9.1752,6.2873 -3.6246,1.2412 -4.7217,5.3929 -8.8475,6.4756 -1.1937,3.7589 -5.2194,5.5225 -8.8074,5.8182 -3.0293,-1.3392 0.6741,4.1723 -4.1157,1.6455 4.6489,-3.1949 -5.9081,1.2403 -7.1412,-1.8178 -3.0982,-2.3776 -6.3324,0.7042 -3.7395,3.3944 1.4776,1.5335 -3.0823,0.5953 -2.3091,6.0008 -2.6566,3.885 2.8486,8.215 0.648,12.7897 -0.6675,1.9675 -0.3735,4.8242 -1.7738,6.4206 z"/>
</g>
</svg>