<svg xmlns="http://www.w3.org/2000/svg" width="200" height="200">
<g fill="#8ad" stroke="#fff" stroke-width=".5">
    <path d="m 082.03458,167.3324 c -1.2683,1.3777 -0.41207,0.2067 0,0 z m 82.77978,12.7285 c 1.89458,0.2507 0.005,-0.7523 0,0 z m -20.54865,-18.5875 c -0.4903,0.6792 -0.45015,-0.7376 0,0 z m -15.44593,-116.3046 c -0.6526,-0.01 0.56431,-0.4492 0,0 z m 20.57806,-4.2114 c -0.15441,0.4027 -0.61836,-0.4845 0,0 z m -25.13581,16.809 c 1.66908,-0.2477 -0.25934,1.0786 0,0 z m 21.89708,17.7603 c -0.0847,0.6016 -0.7715,-0.3051 0,0 z m -0.0744,4.0534 c -0.26294,0.6207 -0.35034,-0.6958 0,0 z m 0.31273,-50.6853 c -0.83904,0.4891 0.3397,-0.7536 0,0 z m 12.72892,47.536 c 0.2706,1.1203 -1.06737,-0.8939 0,0 z m -154.0753,-60.8569 c -0.32002,0.398 -0.08651,-0.482 0,0 z m 66.69446,-0.9667 -0.10469,0.055 0.10469,-0.055 z m 66.63099,61.2227 c 0.38342,-0.3379 0.20187,0.5377 0,0 z m -72.96913,53.6106 c -2.02361,-0.3042 1.64402,-1.4072 0,0 z m 17.66754,-0.2602 c 0.59771,0.072 -0.0406,-0.4173 0,0 z m -0.79112,0.2667 c -0.19798,0.4143 -0.32949,-0.279 0,0 z m 13.73367,-2.6064 c 0.56481,-0.7564 -1.12173,0.096 0,0 z m -5.98265,-0.223 c -5.4534,1.8421 3.65787,1.8689 0,0 z m -34.49597,-15.7833 c -0.1713,1.6693 2.31657,-0.3731 0,0 z m 56.36673,-69.3838 c -0.24809,2.0673 2.07444,0.5182 0,0 z m -10.59711,-5.5078 c 0.32103,2.2682 2.71612,-0.2558 0,0 z m 43.28948,44.5958 c -0.85988,1.8991 2.90201,0.3173 0,0 z m -0.22448,-6.7794 c -0.45986,2.8673 2.37977,0.7772 0,0 z m -7.10293,0.7418 c -0.35756,2.4264 2.83609,-0.3429 0,0 z m -3.2697,-0.2123 c -2.36131,2.8691 2.03478,1.2998 0,0 z m 4.73579,-3.3898 c 0.5809,3.3227 9.25117,2.4406 6.43177,0.9524 -2.32324,-1.4677 -4.29116,0.084 -6.43177,-0.9524 z m 13.75225,34.0032 c -1.28464,2.0627 2.33469,0.3453 0,0 z m 4.73581,-2.7542 c -4.95698,3.0592 -3.04319,1.3593 0.21446,1.9899 2.26459,0.9729 -0.32679,-1.7229 -0.21446,-1.9899 z m 2.02963,-5.0846 c -3.31118,3.1338 2.64628,1.8914 0,0 z m -2.25566,-0.5295 c -2.62608,2.7253 2.30488,1.0507 0,0 z m -2.48014,2.7542 c -4.91188,1.8646 0.73468,2.4022 0,0 z m -12.06167,-4.979 c -1.76308,4.62 5.2649,0.7116 0,0 z m 21.75775,24.6818 c -4.97298,2.3949 2.64488,1.876 0,0 z m -13.4163,67.794 c -1.26412,3.8291 2.85682,0.7478 0,0 z m 15.10688,-10.0632 c -2.47599,1.775 1.78536,1.3244 0,0 z m 1.12706,-4.8726 c -2.86109,2.6307 5.09755,0.5458 0,0 z m -69.78148,-14.5119 c 4.24298,3.4267 4.65264,-0.7629 4.27954,-2.6338 2.06163,4.5127 4.20143,-5.3128 4.33723,0.9102 0.72345,-1.3156 1.0505,5.4874 4.25437,0.9743 3.74488,1.4261 5.53567,2.6755 10.03815,2.479 2.09217,1.1897 5.65354,1.4965 8.6989,-0.5345 3.69189,-1.3761 4.52938,-0.2285 4.43697,2.7108 3.22144,1.5463 5.8573,7.7499 7.95577,1.4778 1.2719,-1.5583 9.00171,-7.8543 6.03273,-3.9 1.69881,0.5321 4.1791,-2.7145 2.23256,1.1687 5.33583,-2.4818 1.10914,1.231 2.71072,2.7705 -2.75059,0.1992 -3.12021,-1.7196 -4.43199,1.6629 2.79271,2.4001 -3.25479,-0.2419 -3.43217,0.8094 3.95081,4.1672 -2.10741,8.7943 -3.51169,11.7004 4.23339,1.3996 1.30696,4.3867 3.84362,5.2475 4.33182,1.6978 1.56846,4.9269 7.74115,2.9476 0.53795,-0.7792 2.33802,1.2667 3.99525,-0.6379 -0.73008,-3.15 4.47297,-5.6229 6.7685,-5.4192 -2.27946,-1.2972 -2.50143,-3.2543 -4.47992,-3.9034 1.54564,-3.6072 4.84687,3.4816 6.07086,-1.2946 0.80724,-3.2987 5.72842,-5.5048 4.85446,-9.7911 1.50748,-2.6726 2.54298,-2.8795 5.3525,-2.5963 -2.30278,-0.9421 -6.14543,-4.6953 -4.56871,-6.1915 1.84206,3.9538 5.02756,-3.2571 2.29086,-5.0483 -0.97602,-3.1558 -4.26126,-0.4869 -3.93374,-5.7585 3.34992,-7.1566 -6.48065,-0.4756 -4.56228,-4.7294 0.75179,-2.7435 1.91044,-2.3115 4.029,-2.4445 4.80357,-5.6437 -8.47693,-3.2718 -1.85552,-4.7445 4.01343,-0.014 -1.92009,-4.7732 -3.43036,-5.6498 0.53418,-2.1391 3.2988,-2.7269 3.34485,-5.6622 3.54153,-5.359 -9.6814,7.0127 -4.3178,-0.722 -7.04348,2.7018 2.75414,-4.1252 -3.83546,-0.973 -5.56573,-3.2322 8.60397,-3.2913 -0.5839,-4.207 3.66562,-1.4488 0.2077,-1.7645 0.0198,-5.0747 -1.62619,1.5517 -6.71992,2.1064 -8.29341,-1.1818 2.55973,-2.3422 0.27189,-3.624 -2.39104,-6.0382 4.8087,-1.7624 1.99834,-4.2189 -1.06897,-2.0535 -2.91337,0.7212 -1.90461,-0.5323 -3.5018,-1.0668 -4.66502,2.1319 -3.77428,-2.8648 -2.34714,-3.6267 4.2599,-0.3448 -2.54375,-3.6611 2.80335,-4.4047 -1.72319,-0.1082 -5.6199,-0.5944 -6.71079,-2.532 2.02595,-1.5441 3.3684,0.2677 6.02133,-0.6997 0.37488,-2.3464 2.75048,-1.076 3.06177,-4.8089 -2.13256,-4.7036 -5.89453,4.6889 -5.92893,-0.9744 -3.05201,-0.3046 -3.7527,1.1049 -6.00065,-0.3125 -2.7186,1.0359 -5.4598,7.4209 -8.42252,2.7467 -1.95473,-3.462 -6.03143,-3.9169 -1.97805,-7.5679 0.49847,-2.9411 8.50191,3.3591 3.51991,-2.4165 2.83677,-2.4561 6.08219,-0.9838 8.24967,-2.1597 1.53817,-2.1333 4.52059,-3.1303 2.38791,-4.4723 -5.69718,3.6697 -4.5544,-4.0302 -5.23188,-4.6006 -1.2955,2.3896 -10.72799,3.7866 -5.15643,-0.9221 2.45856,-2.4325 -1.1357,-2.7562 -2.8157,0.3314 -4.8879,-2.2421 -3.96341,-6.4556 -0.974,-6.882 -5.068,-0.2207 -0.74742,-6.9326 2.72843,-5.6656 4.58257,-0.8798 7.76804,2.8421 9.10135,5.5791 3.57774,-0.9201 4.96932,0.3943 7.33646,-0.4184 1.02839,-2.6287 -5.49889,-3.4625 -1.91643,-4.2026 2.70423,-1.1856 2.53971,-3.4032 -0.78317,-5.5072 2.23145,-2.7694 7.45476,-3.0652 6.85961,1.2753 0.27323,2.7818 4.06438,-1.59 2.04669,-3.3684 1.10068,-2.2661 0.15109,-3.946 -1.61939,-3.7555 -3.14645,-1.4001 -3.73152,-1.1954 -7.27455,2.1345 -3.02462,2.9044 -5.83289,-0.2513 -6.60416,2.3503 0.60114,2.8168 -4.94546,1.6853 -6.32173,0.9232 -3.40135,0.8335 -6.46012,2.0588 -8.92887,4.5622 -0.0929,3.6254 -4.86452,8.161 -5.00196,1.6596 -0.79915,-1.9728 -3.14328,-6.2025 -4.72506,-8.5823 -5.86495,-0.3092 0.86957,-5.216 -5.18859,-3.6607 -2.06592,-3.5973 -8.31692,-6.6089 -5.89953,-10.7408 -1.02241,-2.9332 -1.97944,-0.6549 -5.51363,-0.6872 -1.33972,-3.0019 -3.60784,-6.2878 -5.89837,-6.8685 1.81276,-2.6507 -4.76656,-2.2662 -5.81986,-3.989 -4.16025,3.2732 -6.61319,-1.2858 -9.13864,-2.7394 -4.19603,-1.0957 -7.73506,-3.4911 -11.35587,-5.9286 -2.46414,-2.937 -7.29136,-3.6727 -10.50737,-4.9442 -4.03561,-1.0413 -8.21503,-2.8578 -12.246021,-2.1202 -4.241463,-0.1782 -9.677059,0.7298 -12.403634,1.7233 -1.898656,2.0773 -6.379624,3.4079 -10.231893,4.5263 -1.745426,1.2902 -2.642282,4.7022 -5.059994,6.0418 -1.25443,3.5669 -4.534579,6.8966 -3.770852,11.2427 0.07529,4.8682 3.355086,8.393 5.805495,12.9695 6.225555,1.3354 7.680466,8.3631 13.30599,11.2523 4.581376,4.5645 -0.49286,9.3973 -0.932474,14.4631 -1.370349,3.871 1.896898,8.2913 4.065566,11.5624 2.928762,3.392 5.531256,7.4243 7.022643,10.5747 0.447293,3.8124 6.594054,3.1677 6.927604,7.1115 2.81024,2.8976 6.82803,2.5403 10.61323,4.3884 3.4934,2.3541 5.48171,5.6641 7.91525,8.7523 0.96548,3.9257 6.35423,-0.4738 8.48078,1.0666 -0.48756,0.7546 2.91157,0.1455 3.4786,0.8131 1.09922,-2.3166 1.68559,5.204 4.69623,0.4216 1.90688,0.7214 0.48704,4.7694 3.68598,0.8059 6.00625,2.8894 -1.98626,-5.8923 5.49701,-4.3929 2.76765,-5.1748 5.48422,2.6401 2.09177,2.8869 6.23564,0.2707 -0.23234,2.5569 0.0942,5.0657 2.10359,1.637 5.03757,1.4378 3.34042,3.7772 4.6898,-2.2272 -0.47776,2.7324 2.31658,4.8922 -0.12545,2.2748 7.42899,-0.4977 5.84802,2.9796 4.99955,1.6853 -4.81512,0.7495 0.62619,3.1524 -3.76901,2.3864 -5.76254,2.0108 -8.81365,4.5638 -0.85164,-4.0385 -3.8692,0.7526 -6.12303,-1.0421 1.61123,-2.605 -9.0149,-0.9236 -2.64186,-4.2347 2.43591,-5.5716 -4.04542,0.1353 -4.97445,-1.8399 1.36116,-2.7649 -0.92191,-3.82 -2.52566,-1.218 3.22507,2.2998 -3.7091,2.5289 -4.26122,6.4582 -3.77123,-1.9681 -5.06119,0.8974 -8.36912,2.2752 1.03377,3.6116 -4.57748,3.0138 -3.73641,7.5204 -4.87729,5.509 7.02343,0.056 5.04225,6.0933 -4.47126,0.2713 -0.57603,3.3118 2.02481,3.784 0.79213,3.0065 -3.87128,8.1457 2.08558,7.6126 2.40255,1.4169 7.53654,9.7918 11.1789,2.6372 -0.33463,-4.9023 10.15192,-9.5142 13.55357,-5.3235 3.31625,5.0327 3.43352,-5.4729 5.13811,1.4242 l 0.11302,0.6064 2.6e-4,0 -5e-5,0 z"/>
</g>
</svg>
